<svg width="24" height="48" viewBox="0 0 24 48" fill="none" xmlns="http://www.w3.org/2000/svg">
<path d="M18.596 27.5499V7.45504C18.5815 5.65004 17.8661 3.9213 16.601 2.63379C15.9093 1.94857 15.0785 1.42004 14.1647 1.08403C13.2509 0.748017 12.2755 0.612374 11.3047 0.686293C9.54771 0.859436 7.92083 1.68955 6.74951 3.01058C5.57819 4.33162 4.9488 6.04617 4.98724 7.81129L5.01098 27.4763C3.27206 28.7824 1.94725 30.5628 1.19572 32.6036C0.444186 34.6444 0.297912 36.8588 0.774469 38.9807C1.25103 41.1027 2.33014 43.0419 3.88216 44.5653C5.43417 46.0888 7.39307 47.1317 9.52349 47.5688C10.267 47.7118 11.0226 47.7834 11.7797 47.7825C14.7739 47.7825 17.6458 46.5947 19.7652 44.4798C21.8846 42.3648 23.0784 39.4954 23.0847 36.5013C23.089 34.7621 22.6851 33.0462 21.9055 31.4915C21.1259 29.9368 19.9923 28.5867 18.596 27.5499ZM17.456 43.3674C16.4248 44.2123 15.2183 44.8169 13.9243 45.1373C12.6302 45.4578 11.281 45.486 9.97473 45.2199C8.24103 44.8746 6.65176 44.0145 5.41454 42.7519C4.17733 41.4892 3.34968 39.8828 3.03974 38.1424C2.7324 36.5103 2.88756 34.8247 3.48771 33.2761C4.08785 31.7274 5.10906 30.3775 6.43599 29.3787C6.72242 29.1673 6.95538 28.8918 7.11623 28.5743C7.27707 28.2567 7.36132 27.9059 7.36224 27.5499V7.81129C7.33595 6.65095 7.74189 5.52226 8.50119 4.64445C9.26049 3.76665 10.319 3.20239 11.471 3.06129C11.5807 3.04226 11.6921 3.0343 11.8035 3.03754C12.9712 3.0499 14.0877 3.51928 14.9135 4.34506C15.7392 5.17084 16.2086 6.28728 16.221 7.45504V27.5499C16.2219 27.9059 16.3061 28.2567 16.467 28.5743C16.6278 28.8918 16.8608 29.1673 17.1472 29.3787C18.2266 30.1864 19.108 31.2292 19.7248 32.4279C20.3416 33.6267 20.6776 34.9501 20.7073 36.2979C20.7371 37.6457 20.4598 38.9826 19.8965 40.2074C19.3332 41.4322 18.4986 42.5128 17.456 43.3674Z" fill="#E69732"/>
<path d="M16.2554 36.5259C16.2554 37.7188 15.786 38.8629 14.9503 39.7064C14.1146 40.5499 12.9812 41.0238 11.7994 41.0238C10.6176 41.0238 9.48415 40.5499 8.64848 39.7064C7.8128 38.8629 7.34333 37.7188 7.34333 36.5259C7.33791 35.5425 7.6571 34.5852 8.25053 33.8052C8.84396 33.0252 9.67783 32.4669 10.6205 32.2184V8.51773C10.6205 8.20215 10.7447 7.89949 10.9658 7.67634C11.1869 7.45319 11.4867 7.32782 11.7994 7.32782C12.112 7.32782 12.4119 7.45319 12.633 7.67634C12.854 7.89949 12.9782 8.20215 12.9782 8.51773V32.2208C13.9185 32.4729 14.7498 33.0318 15.3426 33.8105C15.9353 34.5892 16.2563 35.5439 16.2554 36.5259Z" fill="#E69732"/>
</svg>
