<svg width="43" height="47" viewBox="0 0 43 47" fill="none" xmlns="http://www.w3.org/2000/svg">
<path d="M15.2 46.5517C10.93 46.015 7.4125 44.0025 4.6475 40.5142C1.8825 37.0259 0.5 32.79 0.5 27.8067C0.5 23.9734 1.8916 19.805 4.6748 15.3016C7.458 10.7982 11.6664 5.91989 17.3 0.666687C22.935 5.91835 27.1441 10.7967 29.9273 15.3016C32.7105 19.8065 34.1014 23.9749 34.1 27.8067V28.2667H29.9V27.8067C29.9 25.0084 28.8409 21.8459 26.7227 18.3192C24.6045 14.7925 21.4636 10.94 17.3 6.76169C13.135 10.94 9.9941 14.7925 7.8773 18.3192C5.7605 21.8459 4.7014 25.0084 4.7 27.8067C4.7 31.525 5.68 34.6684 7.64 37.2367C9.6 39.805 12.12 41.3575 15.2 41.8942V46.5517ZM19.4 46.6667V32.8667H26.75C27.59 32.8667 28.325 33.2117 28.955 33.9017C29.585 34.5917 29.9 35.3967 29.9 36.3167V38.6167C29.9 39.5367 29.585 40.3417 28.955 41.0317C28.325 41.7217 27.59 42.0667 26.75 42.0667H22.55V46.6667H19.4ZM32 46.6667V32.8667H35.15V37.4667H39.35V32.8667H42.5V46.6667H39.35V40.9167H35.15V46.6667H32ZM22.55 38.6167H26.75V36.3167H22.55V38.6167Z" fill="#308451"/>
</svg>
