<svg width="41" height="32" viewBox="0 0 41 32" fill="none" xmlns="http://www.w3.org/2000/svg">
<path d="M25.4253 0.238342L17.0588 8.72787L14.692 16.3581L16.2336 19.5857L18.028 20.4019L20.9444 15.5608L21.9373 15.2435L27.3645 17.6033L29.1452 16.4609L29.5381 12.6201L30.5418 17.334L29.6082 18.5787L29.9397 18.7229L30.4001 19.2942L31.0006 22.3126L35.9204 16.4437L37.1492 16.4639L39.1176 18.9754L38.2868 14.3836L35.6455 5.32774L25.4253 0.238342ZM8.36427 1.29233L5.76886 5.87178L5.3643 8.29932L7.6477 7.55735L8.67637 8.20571L8.68375 8.26144L11.1706 13.523L12.3811 13.1237L13.3427 13.534L13.6874 14.2556L15.4027 8.72576L15.3083 5.79584L11.7795 5.74996L9.16636 3.65992L12.1599 4.61688L15.8944 3.93775L18.1825 5.33345L21.3714 2.09776C21.1215 1.99114 20.8701 1.888 20.6173 1.78838L13.6229 2.67836L13.3129 2.65639L8.36427 1.29233ZM30.278 4.49348L34.414 10.296L34.5992 15.7901L32.377 10.5432L26.6359 5.23422L30.278 4.49348ZM7.23312 9.35559L1.58755 11.1904L0.118896 18.0944L4.58321 18.585L4.6356 17.9574L7.94573 14.7312L7.23312 9.35559ZM12.2155 14.8444L9.01273 15.9005L6.23151 18.611L8.21679 21.3239L13.2552 21.4768L14.7054 20.0565L12.2155 14.8444ZM21.942 16.9704L18.0478 23.4344L18.0449 28.4565L26.5935 29.5302L30.4819 27.8139L28.9293 20.0086L21.942 16.9704ZM36.506 18.2081L32.3889 23.1191L32.4141 23.275L38.1399 24.4955L40.4058 23.1837L36.506 18.2081ZM24.3435 19.6047L27.7914 21.6123L28.9701 26.0647L26.6128 28.1598L22.6564 27.9354L26.0457 25.4532L26.2639 22.0052L24.3435 19.6047ZM3.393 24.3365L2.6222 26.8423L3.77814 31.1048L11.7794 30.0581L11.8954 27.7362L6.39508 24.9241L3.393 24.3365Z" fill="#2BC2E0"/>
</svg>
