<svg width="43" height="48" viewBox="0 0 43 48" fill="none" xmlns="http://www.w3.org/2000/svg">
<path d="M20.9126 0.666687C20.2398 0.666687 19.745 1.19835 19.745 1.83481C19.745 2.47128 20.2398 3.00274 20.9126 3.00274C21.5855 3.00274 22.0806 2.47128 22.0806 1.83481C22.0806 1.19835 21.5856 0.666687 20.9126 0.666687ZM18.0496 1.33926C14.6754 1.87236 12.2229 2.92475 10.4854 4.37717C10.9877 4.59669 11.4223 4.96 11.7376 5.41883C13.204 4.29176 15.2785 3.4364 18.2256 2.97437C18.0832 2.61381 18.01 2.22627 18.0104 1.83481C18.0104 1.66585 18.0238 1.50039 18.0495 1.33926H18.0496ZM21.7811 4.71913C21.4998 4.81223 21.2071 4.85955 20.9126 4.85953C20.619 4.85957 20.3271 4.81253 20.0465 4.71996V9.70564H21.7811V4.71913ZM9.3754 6.00094C8.70247 6.00094 8.20743 6.5326 8.20743 7.16906C8.20743 7.80553 8.70247 8.33698 9.3754 8.33698C10.0483 8.33698 10.5431 7.80553 10.5431 7.16906C10.5431 6.5326 10.0482 6.00094 9.3754 6.00094ZM11.972 8.51534C11.7015 9.07619 11.2685 9.53699 10.7422 9.83294L14.0848 12.8837L13.8356 10.2162L11.972 8.51534ZM7.3329 9.31035C6.52216 12.0692 6.6407 15.192 6.89414 18.3064C7.22555 22.3791 7.79662 26.499 7.18748 29.8275C6.57844 33.1561 4.96651 35.7193 0.5 37.166L0.946661 38.7458C5.82717 37.1649 8.01296 33.9023 8.70064 30.1447C9.38831 26.387 8.75537 22.1601 8.43013 18.1632C8.19153 15.2313 8.1233 12.4566 8.72752 10.1166C8.20252 9.98936 7.72023 9.7105 7.3329 9.31035ZM15.7046 11.5624L17.073 26.2104H24.7544L26.1228 11.5624H15.7046ZM27.2494 18.1644L26.9603 21.259H31.7069C33.5518 21.259 35.7668 22.6667 37.0778 25.2373L39.4388 23.529C38.6945 21.9776 37.9589 20.7783 37.0946 19.9383C36.1059 18.9773 34.9385 18.4013 33.1782 18.1644H27.2494ZM18.6974 28.0672V41.0648H23.1302V28.0672H18.6974ZM39.4163 28.7893C37.8744 30.4398 36.3325 33.7408 36.3325 35.3912C36.3325 38.6922 42.5 38.6922 42.5 35.3912C42.5 33.7408 40.9581 30.4398 39.4163 28.7893ZM18.0927 42.9216L14.0717 45.7909V47.6667H27.7559V45.7909L23.7349 42.9216H18.0927Z" fill="#DDB723"/>
</svg>
