<svg width="47" height="63" viewBox="0 0 47 63" fill="none" xmlns="http://www.w3.org/2000/svg">
<g clip-path="url(#clip0_528_1159)">
<path d="M43.5407 44.8497C43.2951 45.962 42.0717 50.6882 37.4751 53.1387C33.7142 55.1459 29.9275 54.4342 28.2388 54.1146C26.4682 53.7779 24.9087 53.2409 23.4957 52.525C21.5959 51.5704 19.9416 50.3004 18.339 48.8003C16.2238 46.8272 12.9368 43.7161 11.1921 42.1606C9.44739 40.6094 6.79367 38.274 5.1868 37.4643C3.57562 36.6546 0.947754 36.1048 0.947754 36.1048C1.63272 34.7028 2.322 33.3049 3.00697 31.9071C4.61815 28.566 6.23364 26.0218 7.42264 24.3043C9.5637 21.2018 12.4716 17.9715 15.7973 13.2666C16.7149 11.9668 17.443 10.8886 17.9126 10.1897C18.5114 9.12858 19.1102 8.06743 19.709 7.00202C20.1786 6.04315 20.5232 5.19934 20.7687 4.54304C21.0574 3.77595 21.234 3.3029 21.4063 2.60825C21.458 2.38665 21.57 1.86246 21.794 0.81836C21.8673 0.481689 21.9276 0.20042 21.9664 0.0129077H22.0439L22.1559 -0.00413895C22.1818 0.000122705 22.2335 0.00864601 22.2722 0.021431C22.3153 0.0384776 22.3584 0.0555242 22.367 0.0810941C22.5609 0.728865 22.7504 1.37664 22.9443 2.02441C22.9873 2.18209 23.2717 3.2475 23.9308 5.36554C24.6416 7.65405 25.6152 9.43116 26.4208 10.9185C27.2178 12.376 28.2775 14.0977 29.6733 15.943C31.0993 17.9672 32.5295 19.9873 33.9555 22.0116C34.7912 23.2389 35.6226 24.462 36.4627 25.6851C37.6603 27.4409 38.8536 29.1924 40.0512 30.9525C40.5036 31.6983 41.1196 32.7978 41.7098 34.1914C42.9203 37.0467 44.4798 40.6946 43.5536 44.8497H43.5407Z" fill="#3F8DB4"/>
<path d="M26.9291 23.763C26.3088 24.7858 25.934 25.4634 25.1844 26.7887C24.6674 27.705 24.6588 27.7178 24.6157 27.8328C24.5167 28.1056 23.9265 29.6952 24.8527 31.2464C24.9604 31.4297 25.9986 33.096 28.0061 33.1557C30.0998 33.2196 31.2543 31.4808 31.3448 31.3402C32.1547 30.0745 31.8876 28.7491 31.8316 28.4721C31.7928 28.2761 31.7454 28.1184 31.0605 26.7419C30.5866 25.783 30.4961 25.6381 29.4838 23.763C28.7342 22.3737 28.5662 22.054 28.2646 22.0455C28.0104 22.037 27.8424 22.2629 26.9334 23.763H26.9291Z" fill="white" stroke="white" stroke-miterlimit="10"/>
<path d="M14.0438 25.0926C14.7861 25.0926 15.3879 24.5774 15.3879 23.942C15.3879 23.3065 14.7861 22.7913 14.0438 22.7913C13.3015 22.7913 12.6997 23.3065 12.6997 23.942C12.6997 24.5774 13.3015 25.0926 14.0438 25.0926Z" fill="#6ABAD6"/>
<path d="M36.8529 32.5885C37.4762 32.2494 37.6599 31.396 37.2632 30.6824C36.8665 29.9689 36.0396 29.6653 35.4162 30.0045C34.7929 30.3436 34.6092 31.197 35.0059 31.9106C35.4026 32.6241 36.2295 32.9276 36.8529 32.5885Z" fill="#6ABAD6"/>
<path d="M40.3442 53.5562C40.4993 53.7053 39.4998 54.9668 38.621 55.9512C37.6 57.0976 36.4196 58.0522 34.7266 59.0793C33.0034 60.1276 30.6513 61.5553 27.0972 62.3906C25.7315 62.7102 22.0784 63.4389 17.5636 62.6505C15.2115 62.2372 13.4624 61.5596 12.7085 61.2442C10.2271 60.2129 8.56427 58.994 8.03439 58.5892C7.69836 58.3335 6.84108 57.6644 5.82009 56.6288C5.57884 56.3817 5.33329 56.1174 5.07912 55.8319C4.02797 54.6429 3.24823 53.4965 2.68819 52.5547C3.29131 52.0092 4.33384 51.208 5.82009 50.7264C6.18626 50.6071 7.6122 50.1767 9.9342 50.4239C13.4581 50.8031 14.6988 52.2862 20.1786 53.7735C20.5921 53.8843 20.9282 53.9696 21.1263 54.0207C21.0789 53.9994 21.0315 53.9738 20.9842 53.9525C15.8491 51.4211 14.8108 50.5688 10.9638 48.9792C7.65098 47.6154 5.78562 47.1637 3.67041 47.2106C2.50726 47.2361 1.47334 47.4066 0.620362 47.6154C0.430811 46.8952 0.318804 46.3156 0.249876 45.9278C-0.00860234 44.5002 -0.00860234 43.6393 1.36129e-05 42.5398C0.00862956 41.6363 0.0732492 41.4957 0.129253 41.4019C0.891764 40.1192 4.36399 40.3408 6.93585 41.4829C7.85776 41.892 8.62458 42.4759 10.1582 43.6436C11.9891 45.0371 13.0704 46.0471 14.1388 46.989C16.5383 49.1028 18.3778 50.7307 21.0014 52.3033C23.8533 54.0164 26.1451 54.775 27.291 55.1117C28.7859 55.5464 29.9706 55.7339 30.8279 55.8362C32.7406 56.0535 34.0546 55.9214 34.4681 55.8745C35.4417 55.7637 36.0621 55.589 36.355 55.5038C36.5101 55.4569 37.1477 55.2566 37.9231 54.873C38.4702 54.6003 38.4616 54.5449 39.5128 53.9525C40.2365 53.5434 40.314 53.5306 40.3442 53.5604V53.5562Z" fill="#193F5B"/>
<path d="M21.191 9.3458C20.3724 11.5874 19.1145 13.7012 18.7053 14.3788C17.5852 16.2497 16.4306 17.7626 15.7198 18.6916C14.8152 19.8763 13.9751 20.8693 13.5745 21.3466C12.5836 22.5186 12.0796 23.0513 10.8044 24.5855C9.88253 25.6978 9.55512 26.1325 9.21048 26.6566C8.6806 27.4621 8.29719 28.1951 8.01287 28.7363C7.707 29.3244 7.53899 29.6909 7.40975 29.9892C7.29774 30.2492 7.29343 30.2918 7.00911 31.0291C6.64724 31.988 6.47923 32.4056 6.15613 32.8829C5.93211 33.2153 5.77703 33.3559 5.57455 33.4454C5.16099 33.6202 4.74742 33.4838 4.63541 33.4454C4.53633 33.4114 4.17446 33.292 3.96337 32.9937C3.66612 32.5675 3.82551 31.9965 3.94183 31.6556C4.55356 29.823 6.19059 27.5388 6.50077 27.1084C7.97409 25.0713 8.52121 24.4107 8.92185 23.9377C9.42588 23.3539 10.141 22.5612 10.2013 22.4973C10.8389 21.7898 11.1405 21.483 11.5928 20.9929C12.4113 20.1022 12.9929 19.4161 13.5831 18.7172C14.2163 17.9671 15.0607 16.9315 16.4263 15.1757C17.6369 13.6202 19.0284 11.7579 19.5367 11.0078C22.2206 7.0573 22.1215 2.07116 22.0267 0.0085233L22.1387 0C22.1646 0.00426165 22.2163 0.012785 22.255 0.0255699C22.4963 1.72171 22.6298 5.40804 21.1867 9.3458H21.191Z" fill="#C2E2F3"/>
<path d="M25.1069 31.6134V31.6087" stroke="#1D1D1B" stroke-miterlimit="10"/>
<path d="M30.4619 25.5832V25.5784" stroke="#1D1D1B" stroke-miterlimit="10"/>
<path d="M26.0331 30.7691C26.0072 30.7563 25.9857 30.7436 25.9857 30.7436C25.9857 30.7436 25.9684 30.735 25.9512 30.7222C25.8392 30.6413 25.7573 30.5092 25.7573 30.5092C25.7401 30.4879 25.7013 30.4367 25.6583 30.3643C25.6583 30.3643 25.529 30.1469 25.4773 29.8699C25.3265 29.0346 25.6324 28.1141 25.6324 28.1141C25.8004 27.5857 26.1278 26.7802 26.7956 25.9023C27.2436 25.2673 27.5538 24.7218 27.7562 24.3255C27.9716 23.9121 28.075 23.6607 28.2473 23.6564C28.4886 23.6522 28.648 24.1209 29.0099 24.8966C29.0443 24.9733 29.1391 25.1906 29.264 25.4208C29.264 25.4208 29.3157 25.5102 29.4148 25.6892C29.4622 25.7787 29.4924 25.8256 29.5311 25.8938C29.5828 25.9833 29.5871 25.979 29.6345 26.0557C29.6991 26.1623 29.7638 26.2688 29.8155 26.4095C29.8155 26.4095 29.8413 26.4776 29.8628 26.5544C30.3367 28.4082 27.1359 31.255 26.0331 30.7776V30.7691Z" fill="#195686"/>
<path d="M27.5192 30.36C28.0534 30.0233 28.4023 29.6696 28.6264 29.4395C28.7858 29.2775 28.8891 29.154 28.9193 29.1199C29.0227 28.9963 29.2036 28.7832 29.3889 28.4806C29.7206 27.9351 29.8326 27.4791 29.8671 27.33C29.8972 27.1979 29.9101 27.1297 29.9101 27.0231C29.9231 26.5117 29.6387 26.1324 29.6603 26.1239C29.6904 26.1069 29.936 26.5203 29.936 26.5203C30.3065 27.1467 30.4917 27.4578 30.5865 27.7093C30.832 28.3485 30.8751 28.7448 30.8579 29.0815C30.8579 29.0815 30.8536 29.1454 30.845 29.2136C30.7933 29.6952 30.5649 31.0717 29.3329 31.6896C28.299 32.201 27.1832 31.8772 26.8644 31.6896C26.4982 31.4723 26.2268 31.1527 26.2268 31.1527C26.2096 31.1356 26.1967 31.1143 26.1794 31.0973C26.0631 30.9566 25.9726 30.816 25.8994 30.6796C26.1277 30.7393 26.5155 30.8032 26.9419 30.6711C27.1315 30.6114 27.2607 30.5305 27.5235 30.3643L27.5192 30.36Z" fill="#6ABAD6"/>
<path d="M17.7788 42.3566C17.4772 43.0682 17.6323 43.7799 17.7228 44.2018C17.8003 44.5684 17.9511 45.2246 18.5069 45.8213C19.278 46.6566 20.3033 46.8057 20.6091 46.8483C20.9322 46.891 22.5003 47.0955 23.4955 46.0173C24.2623 45.182 24.1761 44.1251 24.1589 43.8567C24.0598 42.608 23.2112 41.8366 22.9268 41.5767C22.6382 41.3124 22.1385 40.8607 21.3587 40.6902C19.9845 40.3919 18.3044 41.1121 17.7788 42.3523V42.3566Z" fill="#6ABAD6"/>
<path d="M24.5211 53.0022C24.5211 53.0022 24.7365 53.0576 24.7623 53.0661C27.541 53.9014 32.5037 51.9154 32.5037 51.9154C34.3562 51.1739 35.851 50.573 37.4794 49.1624C38.298 48.455 39.7325 47.1935 40.6544 45.0499C41.5031 43.0725 41.4859 41.3593 41.4643 40.5326C41.4256 38.845 41.0378 37.6815 40.3658 35.7212C39.5731 33.4156 37.389 27.9522 37.1779 27.1169C37.1434 26.989 37.0616 26.5927 37.0659 26.5884C37.0659 26.5884 37.0659 26.5884 37.0831 26.6183C37.0831 26.6183 37.0831 26.6183 37.1477 26.712C37.1607 26.7291 37.1693 26.7419 37.1779 26.7547C37.1908 26.776 37.2037 26.793 37.208 26.7973C37.2468 26.8527 37.3373 26.9848 37.3373 26.9848C37.4278 27.1169 38.0912 28.0886 38.4272 28.5872C39.0648 29.5205 39.3879 29.9892 39.4439 30.0702C39.4956 30.1427 39.6722 30.3813 39.8833 30.7095C39.9781 30.8544 40.047 30.9694 40.103 31.0589C40.1935 31.2038 40.3529 31.4723 40.551 31.826C40.6243 31.9581 40.8569 32.38 41.1412 32.9639C41.3049 33.3005 41.4169 33.552 41.5246 33.7821C41.8047 34.4001 42.201 35.3163 42.6404 36.5011C42.6964 36.6545 42.7266 36.7312 42.7653 36.8377C42.985 37.4514 43.3555 38.4998 43.5925 39.8124C43.8208 41.0653 43.8294 42.0242 43.8294 42.3012C43.8294 42.5441 43.8294 43.0129 43.7605 43.5839C43.7174 43.9589 43.6485 44.334 43.6269 44.4448C43.5968 44.6152 43.5666 44.7559 43.5451 44.8582C43.4848 45.1394 43.4245 45.3482 43.3857 45.4974C43.2995 45.8042 43.2177 46.0557 43.1875 46.1452C43.1272 46.3199 42.9549 46.8398 42.7696 47.2873C42.4509 48.0544 42.0804 48.6382 41.852 49.0005C41.5203 49.5204 40.956 50.3898 39.9867 51.3231C39.3663 51.9197 38.8192 52.3118 38.5694 52.4822C38.1343 52.7806 37.7509 53.0022 37.4838 53.1428C37.3847 53.1939 37.0659 53.3644 36.6308 53.5519C36.4671 53.6244 36.2344 53.7224 35.9157 53.8332C35.8381 53.8588 35.6098 53.9397 35.2652 54.0335C34.5328 54.238 33.9426 54.3318 33.7617 54.3574C33.5937 54.3829 33.1542 54.4469 32.577 54.4767C32.4607 54.4852 32.0686 54.5023 31.5474 54.4937C30.815 54.481 30.2507 54.417 29.9319 54.3787C29.346 54.3105 28.9152 54.2338 28.5576 54.1656C27.0929 53.8971 26.1021 53.5732 26.0978 53.5732C25.3568 53.3133 24.5124 53.0107 24.5211 52.9936V53.0022Z" fill="#193F5B"/>
</g>
<defs>
<clipPath id="clip0_528_1159">
<rect width="47" height="63" fill="white"/>
</clipPath>
</defs>
</svg>
