<svg width="47" height="44" viewBox="0 0 47 44" fill="none" xmlns="http://www.w3.org/2000/svg">
<rect x="0.5" width="46" height="44" rx="22" fill="#2CC28F"/>
<g clip-path="url(#clip0_529_1218)">
<path d="M34.5835 29.9167V33.0833H15.5835V29.9167C15.5835 29.9167 15.5835 23.5833 25.0835 23.5833C34.5835 23.5833 34.5835 29.9167 34.5835 29.9167ZM29.8335 15.6667C29.8335 14.7272 29.5549 13.8088 29.033 13.0277C28.511 12.2466 27.7692 11.6377 26.9012 11.2782C26.0333 10.9187 25.0782 10.8246 24.1568 11.0079C23.2354 11.1912 22.389 11.6436 21.7247 12.3079C21.0604 12.9722 20.608 13.8186 20.4248 14.74C20.2415 15.6614 20.3356 16.6165 20.6951 17.4844C21.0546 18.3524 21.6634 19.0942 22.4445 19.6161C23.2257 20.1381 24.144 20.4167 25.0835 20.4167C26.3433 20.4167 27.5515 19.9162 28.4423 19.0254C29.3331 18.1346 29.8335 16.9264 29.8335 15.6667ZM34.9002 23.6783C35.7657 24.4768 36.4634 25.4397 36.9528 26.5108C37.4421 27.5819 37.7132 28.7397 37.7502 29.9167V33.0833H42.5002V29.9167C42.5002 29.9167 42.5002 24.4542 34.9002 23.6783ZM33.0002 10.9167C32.5218 10.9167 32.0463 10.9915 31.591 11.1383C32.5173 12.4667 33.014 14.0472 33.014 15.6667C33.014 17.2861 32.5173 18.8666 31.591 20.195C32.0463 20.3418 32.5218 20.4166 33.0002 20.4167C34.2599 20.4167 35.4681 19.9162 36.3589 19.0254C37.2497 18.1346 37.7502 16.9264 37.7502 15.6667C37.7502 14.4069 37.2497 13.1987 36.3589 12.3079C35.4681 11.4171 34.2599 10.9167 33.0002 10.9167ZM16.1218 17.1233L17.9585 19.3558L10.4377 26.8767L6.0835 22.1267L7.92016 20.29L10.4377 22.7917L16.1218 17.1233Z" fill="white"/>
</g>
<defs>
<clipPath id="clip0_529_1218">
<rect width="38" height="38" fill="white" transform="translate(4.5 3)"/>
</clipPath>
</defs>
</svg>
