<svg width="32" height="32" viewBox="0 0 32 32" fill="none" xmlns="http://www.w3.org/2000/svg">
<path d="M27.9998 28L22.2091 22.2093M22.2091 22.2093C23.1996 21.2188 23.9854 20.0429 24.5214 18.7487C25.0575 17.4546 25.3334 16.0675 25.3334 14.6667C25.3334 13.2659 25.0575 11.8788 24.5214 10.5846C23.9854 9.29043 23.1996 8.11452 22.2091 7.124C21.2186 6.13348 20.0427 5.34776 18.7485 4.8117C17.4543 4.27563 16.0673 3.99973 14.6665 3.99973C13.2657 3.99973 11.8786 4.27563 10.5844 4.8117C9.29022 5.34776 8.1143 6.13348 7.12379 7.124C5.12335 9.12444 3.99951 11.8376 3.99951 14.6667C3.99951 17.4957 5.12335 20.2089 7.12379 22.2093C9.12423 24.2098 11.8374 25.3336 14.6665 25.3336C17.4955 25.3336 20.2087 24.2098 22.2091 22.2093Z" stroke="#255C78" stroke-width="3.33333" stroke-linecap="round" stroke-linejoin="round"/>
</svg>
