<svg width="47" height="44" viewBox="0 0 47 44" fill="none" xmlns="http://www.w3.org/2000/svg">
<rect x="0.5" width="46" height="44" rx="22" fill="#105B85"/>
<path d="M9.5 20C11.7063 20 13.5 18.2063 13.5 16C13.5 13.7937 11.7063 12 9.5 12C7.29375 12 5.5 13.7937 5.5 16C5.5 18.2063 7.29375 20 9.5 20ZM37.5 20C39.7062 20 41.5 18.2063 41.5 16C41.5 13.7937 39.7062 12 37.5 12C35.2938 12 33.5 13.7937 33.5 16C33.5 18.2063 35.2938 20 37.5 20ZM39.5 22H35.5C34.4 22 33.4062 22.4438 32.6812 23.1625C35.2 24.5438 36.9875 27.0375 37.375 30H41.5C42.6063 30 43.5 29.1063 43.5 28V26C43.5 23.7937 41.7062 22 39.5 22ZM23.5 22C27.3687 22 30.5 18.8687 30.5 15C30.5 11.1312 27.3687 8 23.5 8C19.6313 8 16.5 11.1312 16.5 15C16.5 18.8687 19.6313 22 23.5 22ZM28.3 24H27.7812C26.4813 24.625 25.0375 25 23.5 25C21.9625 25 20.525 24.625 19.2188 24H18.7C14.725 24 11.5 27.225 11.5 31.2V33C11.5 34.6562 12.8438 36 14.5 36H32.5C34.1562 36 35.5 34.6562 35.5 33V31.2C35.5 27.225 32.275 24 28.3 24ZM14.3188 23.1625C13.5938 22.4438 12.6 22 11.5 22H7.5C5.29375 22 3.5 23.7937 3.5 26V28C3.5 29.1063 4.39375 30 5.5 30H9.61875C10.0125 27.0375 11.8 24.5438 14.3188 23.1625Z" fill="white"/>
</svg>
