<svg width="47" height="44" viewBox="0 0 47 44" fill="none" xmlns="http://www.w3.org/2000/svg">
<rect x="0.5" width="46" height="44" rx="22" fill="#E69732"/>
<g clip-path="url(#clip0_529_1230)">
<path d="M34 29.5V32.5H16V29.5C16 29.5 16 23.5 25 23.5C34 23.5 34 29.5 34 29.5ZM29.5 16C29.5 15.11 29.2361 14.24 28.7416 13.4999C28.2471 12.7599 27.5443 12.1831 26.7221 11.8425C25.8998 11.5019 24.995 11.4128 24.1221 11.5865C23.2492 11.7601 22.4474 12.1887 21.818 12.818C21.1887 13.4474 20.7601 14.2492 20.5865 15.1221C20.4128 15.995 20.5019 16.8998 20.8425 17.7221C21.1831 18.5443 21.7599 19.2471 22.4999 19.7416C23.24 20.2361 24.11 20.5 25 20.5C26.1935 20.5 27.3381 20.0259 28.182 19.182C29.0259 18.3381 29.5 17.1935 29.5 16ZM34.3 23.59C35.1199 24.3465 35.781 25.2587 36.2446 26.2734C36.7081 27.2881 36.965 28.385 37 29.5V32.5H41.5V29.5C41.5 29.5 41.5 24.325 34.3 23.59ZM32.5 11.5C32.0468 11.5 31.5963 11.5709 31.165 11.71C32.0426 12.9685 32.5131 14.4658 32.5131 16C32.5131 17.5342 32.0426 19.0315 31.165 20.29C31.5963 20.4291 32.0468 20.5 32.5 20.5C33.6935 20.5 34.8381 20.0259 35.682 19.182C36.5259 18.3381 37 17.1935 37 16C37 14.8065 36.5259 13.6619 35.682 12.818C34.8381 11.9741 33.6935 11.5 32.5 11.5ZM17.5 19H5.5V22H17.5V19Z" fill="white"/>
</g>
<defs>
<clipPath id="clip0_529_1230">
<rect width="36" height="36" fill="white" transform="translate(5.5 4)"/>
</clipPath>
</defs>
</svg>
