<svg width="32" height="32" viewBox="0 0 32 32" fill="none" xmlns="http://www.w3.org/2000/svg">
<path d="M23.5346 10.2C22.4071 8.73535 20.8772 7.63109 19.1319 7.02231C17.3867 6.41353 15.5019 6.32664 13.708 6.77227C11.9142 7.2179 10.2892 8.17673 9.03171 9.53144C7.77425 10.8861 6.93893 12.578 6.62793 14.4M24.0013 5.33334V10.6667H18.6679M8.46526 21.8C9.59243 23.2652 11.1223 24.37 12.8677 24.9792C14.6131 25.5883 16.4982 25.6754 18.2923 25.2297C20.0864 24.784 21.7116 23.8249 22.969 22.4698C24.2264 21.1147 25.0615 19.4224 25.3719 17.6M7.99993 26.6667V21.3333H13.3333" stroke="#255C78" stroke-width="2.66667" stroke-linecap="round" stroke-linejoin="round"/>
</svg>
