<svg width="29" height="29" viewBox="0 0 29 29" fill="none" xmlns="http://www.w3.org/2000/svg">
<path d="M20.0834 6.16663L20.8067 7.76496L22.4167 8.49996L20.8067 9.23496L20.0834 10.8333L19.3367 9.23496L17.7501 8.49996L19.3367 7.76496L20.0834 6.16663ZM13.0834 7.48496V4.99996H15.4167C16.0817 4.99996 16.7001 5.19829 17.2251 5.52496L18.9167 3.83329C17.9251 3.12163 16.7351 2.66663 15.4167 2.66663H9.00008V4.99996H10.7501V7.49663C9.74092 7.70537 8.80525 8.17824 8.03865 8.86695C7.27206 9.55566 6.70201 10.4355 6.38675 11.4166H11.0301L17.7501 13.925V13.2016C17.7504 11.8569 17.286 10.5533 16.4356 9.51157C15.5852 8.46984 14.401 7.75391 13.0834 7.48496ZM1.41675 26H6.08341V13.1666H1.41675V26ZM23.5834 20.1666H15.4167L12.9784 19.315L13.3634 18.2183L15.4167 19H18.7067C19.4651 19 20.0834 18.3816 20.0834 17.6233C20.0834 17.0516 19.7217 16.5383 19.1851 16.3283L10.7151 13.1666H8.41675V23.6666L16.5834 26L25.9167 22.5C25.9167 21.8811 25.6709 21.2876 25.2333 20.85C24.7957 20.4125 24.2023 20.1666 23.5834 20.1666ZM23.5834 16.6666C24.8667 16.6666 25.9167 15.6166 25.9167 14.3333C25.9167 13.05 23.5834 9.66663 23.5834 9.66663C23.5834 9.66663 21.2501 13.05 21.2501 14.3333C21.2501 15.6166 22.3001 16.6666 23.5834 16.6666Z" fill="white"/>
</svg>
