<svg width="29" height="29" viewBox="0 0 29 29" fill="none" xmlns="http://www.w3.org/2000/svg">
<path d="M24.7339 15.6808L23.1379 10.8928C22.9064 10.1957 22.4611 9.58929 21.8652 9.15973C21.2694 8.73017 20.5533 8.49932 19.8188 8.49997H9.18109C8.44654 8.49932 7.73047 8.73017 7.13462 9.15973C6.53877 9.58929 6.09344 10.1957 5.86192 10.8928L4.26592 15.6808C3.84151 15.8584 3.47907 16.1575 3.22416 16.5405C2.96925 16.9234 2.83325 17.3732 2.83325 17.8333V21.3333C2.83325 22.1943 3.30459 22.9386 3.99992 23.3435V24.8333C3.99992 25.1427 4.12283 25.4395 4.34163 25.6583C4.56042 25.8771 4.85717 26 5.16659 26H6.33325C6.64267 26 6.93942 25.8771 7.15821 25.6583C7.377 25.4395 7.49992 25.1427 7.49992 24.8333V23.6666H21.4999V24.8333C21.4999 25.1427 21.6228 25.4395 21.8416 25.6583C22.0604 25.8771 22.3572 26 22.6666 26H23.8333C24.1427 26 24.4394 25.8771 24.6582 25.6583C24.877 25.4395 24.9999 25.1427 24.9999 24.8333V23.3435C25.3539 23.1405 25.6481 22.8478 25.8529 22.4949C26.0577 22.142 26.1659 21.7413 26.1666 21.3333V17.8333C26.1666 16.8638 25.5751 16.0343 24.7339 15.6808ZM9.18109 10.8333H19.8176C20.0625 10.8332 20.3013 10.9103 20.5 11.0535C20.6987 11.1968 20.8473 11.3989 20.9248 11.6313L22.2151 15.5H6.78475L8.07392 11.6313C8.23375 11.1541 8.67942 10.8333 9.18109 10.8333ZM6.91658 21.3333C6.6867 21.3332 6.45907 21.2879 6.24671 21.1998C6.03435 21.1118 5.84141 20.9828 5.67891 20.8202C5.35072 20.4918 5.16643 20.0464 5.16659 19.5821C5.16674 19.1179 5.35132 18.6726 5.67973 18.3445C6.00814 18.0163 6.45347 17.832 6.91775 17.8321C7.38204 17.8323 7.82724 18.0169 8.15543 18.3453C8.48362 18.6737 8.66791 19.119 8.66775 19.5833C8.6676 20.0476 8.48301 20.4928 8.15461 20.821C7.8262 21.1492 7.38087 21.3335 6.91658 21.3333ZM22.0833 21.3333C21.619 21.3331 21.1738 21.1486 20.8456 20.8202C20.5174 20.4918 20.3331 20.0464 20.3333 19.5821C20.3334 19.1179 20.518 18.6726 20.8464 18.3445C21.1748 18.0163 21.6201 17.832 22.0844 17.8321C22.5487 17.8323 22.9939 18.0169 23.3221 18.3453C23.6503 18.6737 23.8346 19.119 23.8344 19.5833C23.8343 20.0476 23.6497 20.4928 23.3213 20.821C22.9929 21.1492 22.5475 21.3335 22.0833 21.3333ZM10.9999 5.44097C11.0058 4.17164 9.79008 3.04814 9.38175 2.70631C9.34462 2.67474 9.29748 2.65741 9.24875 2.65741C9.20002 2.65741 9.15288 2.67474 9.11575 2.70631C8.70509 3.04581 7.49409 4.14947 7.49992 5.43981C7.49992 6.48397 8.28509 7.33331 9.24992 7.33331C10.2148 7.33331 10.9999 6.48397 10.9999 5.44097ZM16.2499 5.44097C16.2558 4.17164 15.0401 3.04697 14.6318 2.70631C14.5946 2.67474 14.5475 2.65741 14.4988 2.65741C14.45 2.65741 14.4029 2.67474 14.3658 2.70631C13.9539 3.04581 12.7429 4.15064 12.7488 5.44097C12.7499 6.48397 13.5351 7.33331 14.4999 7.33331C15.4648 7.33331 16.2499 6.48397 16.2499 5.44097ZM21.4999 5.44097C21.5058 4.17164 20.2901 3.04697 19.8818 2.70631C19.8446 2.67474 19.7975 2.65741 19.7488 2.65741C19.7 2.65741 19.6529 2.67474 19.6158 2.70631C19.2051 3.04581 17.9941 4.14947 17.9999 5.43981C17.9999 6.48397 18.7851 7.33331 19.7499 7.33331C20.7148 7.33331 21.4999 6.48397 21.4999 5.44097Z" fill="white"/>
<path d="M14.5 6.16663C14.0139 6.16663 13.6009 5.99669 13.261 5.6568C12.9211 5.31691 12.7508 4.90352 12.75 4.41663C12.75 4.06663 12.8278 3.75552 12.9833 3.4833C13.1389 3.21108 13.4986 2.73469 14.0625 2.05413C14.1792 1.89858 14.325 1.8208 14.5 1.8208C14.675 1.8208 14.8208 1.89858 14.9375 2.05413C15.5014 2.73469 15.8611 3.21108 16.0167 3.4833C16.1722 3.75552 16.25 4.06663 16.25 4.41663C16.25 4.90275 16.0801 5.31613 15.7402 5.6568C15.4003 5.99747 14.9869 6.16741 14.5 6.16663ZM8.66667 6.16663C8.18056 6.16663 7.76756 5.99669 7.42767 5.6568C7.08778 5.31691 6.91744 4.90352 6.91667 4.41663C6.91667 4.06663 6.99444 3.75552 7.15 3.4833C7.30556 3.21108 7.66528 2.73469 8.22917 2.05413C8.34583 1.89858 8.49167 1.8208 8.66667 1.8208C8.84167 1.8208 8.9875 1.89858 9.10417 2.05413C9.66806 2.73469 10.0278 3.21108 10.1833 3.4833C10.3389 3.75552 10.4167 4.06663 10.4167 4.41663C10.4167 4.90275 10.2467 5.31613 9.90683 5.6568C9.56694 5.99747 9.15356 6.16741 8.66667 6.16663ZM20.3333 6.16663C19.8472 6.16663 19.4342 5.99669 19.0943 5.6568C18.7544 5.31691 18.5841 4.90352 18.5833 4.41663C18.5833 4.06663 18.6611 3.75552 18.8167 3.4833C18.9722 3.21108 19.3319 2.73469 19.8958 2.05413C20.0125 1.89858 20.1583 1.8208 20.3333 1.8208C20.5083 1.8208 20.6542 1.89858 20.7708 2.05413C21.3347 2.73469 21.6944 3.21108 21.85 3.4833C22.0056 3.75552 22.0833 4.06663 22.0833 4.41663C22.0833 4.90275 21.9134 5.31613 21.5735 5.6568C21.2336 5.99747 20.8202 6.16741 20.3333 6.16663ZM7.5 24.8333V25.4166C7.5 25.9027 7.33006 26.3161 6.99017 26.6568C6.65028 26.9975 6.23689 27.1674 5.75 27.1666C5.26311 27.1659 4.85011 26.9959 4.511 26.6568C4.17189 26.3177 4.00156 25.9043 4 25.4166V17.075C4 16.9389 4.00972 16.8027 4.02917 16.6666C4.04861 16.5305 4.07778 16.4041 4.11667 16.2875L6.30417 10.075C6.45972 9.6083 6.74167 9.22913 7.15 8.93747C7.55833 8.6458 8.01528 8.49997 8.52083 8.49997H20.4792C20.9847 8.49997 21.4417 8.6458 21.85 8.93747C22.2583 9.22913 22.5403 9.6083 22.6958 10.075L24.8833 16.2875C24.9222 16.4041 24.9514 16.5305 24.9708 16.6666C24.9903 16.8027 25 16.9389 25 17.075V25.4166C25 25.9027 24.8301 26.3161 24.4902 26.6568C24.1503 26.9975 23.7369 27.1674 23.25 27.1666C22.7631 27.1659 22.3501 26.9959 22.011 26.6568C21.6719 26.3177 21.5016 25.9043 21.5 25.4166V24.8333H7.5ZM7.26667 14.3333H21.7333L20.5083 10.8333H8.49167L7.26667 14.3333ZM9.25 21.3333C9.73611 21.3333 10.1495 21.1634 10.4902 20.8235C10.8308 20.4836 11.0008 20.0702 11 19.5833C10.9992 19.0964 10.8293 18.6834 10.4902 18.3443C10.1511 18.0052 9.73767 17.8349 9.25 17.8333C8.76233 17.8317 8.34933 18.0021 8.011 18.3443C7.67267 18.6865 7.50233 19.0995 7.5 19.5833C7.49767 20.0671 7.668 20.4805 8.011 20.8235C8.354 21.1665 8.767 21.3364 9.25 21.3333ZM19.75 21.3333C20.2361 21.3333 20.6495 21.1634 20.9902 20.8235C21.3308 20.4836 21.5008 20.0702 21.5 19.5833C21.4992 19.0964 21.3293 18.6834 20.9902 18.3443C20.6511 18.0052 20.2377 17.8349 19.75 17.8333C19.2623 17.8317 18.8493 18.0021 18.511 18.3443C18.1727 18.6865 18.0023 19.0995 18 19.5833C17.9977 20.0671 18.168 20.4805 18.511 20.8235C18.854 21.1665 19.267 21.3364 19.75 21.3333Z" fill="white"/>
</svg>
