<svg width="28" height="29" viewBox="0 0 28 29" fill="none" xmlns="http://www.w3.org/2000/svg">
<path d="M13.9999 6.16663C13.9999 5.47439 14.2052 4.7977 14.5898 4.22213C14.9744 3.64656 15.521 3.19796 16.1605 2.93305C16.8001 2.66814 17.5038 2.59883 18.1827 2.73388C18.8617 2.86893 19.4853 3.20227 19.9748 3.69175C20.4643 4.18124 20.7976 4.80488 20.9327 5.48381C21.0677 6.16275 20.9984 6.86648 20.7335 7.50602C20.4686 8.14556 20.02 8.69219 19.4444 9.07677C18.8688 9.46136 18.1922 9.66663 17.4999 9.66663M13.9999 6.16663C13.9999 5.47439 13.7946 4.7977 13.4101 4.22213C13.0255 3.64656 12.4789 3.19796 11.8393 2.93305C11.1998 2.66814 10.496 2.59883 9.8171 2.73388C9.13817 2.86893 8.51453 3.20227 8.02505 3.69175C7.53556 4.18124 7.20222 4.80488 7.06717 5.48381C6.93212 6.16275 7.00143 6.86648 7.26634 7.50602C7.53125 8.14556 7.97985 8.69219 8.55542 9.07677C9.131 9.46136 9.80768 9.66663 10.4999 9.66663M13.9999 6.16663V7.33329M17.4999 9.66663C18.1922 9.66663 18.8688 9.8719 19.4444 10.2565C20.02 10.6411 20.4686 11.1877 20.7335 11.8272C20.9984 12.4668 21.0677 13.1705 20.9327 13.8494C20.7976 14.5284 20.4643 15.152 19.9748 15.6415C19.4853 16.131 18.8617 16.4643 18.1827 16.5994C17.5038 16.7344 16.8001 16.6651 16.1605 16.4002C15.521 16.1353 14.9744 15.6867 14.5898 15.1111C14.2052 14.5356 13.9999 13.8589 13.9999 13.1666M17.4999 9.66663H16.3333M10.4999 9.66663C9.80768 9.66663 9.131 9.8719 8.55542 10.2565C7.97985 10.6411 7.53125 11.1877 7.26634 11.8272C7.00143 12.4668 6.93212 13.1705 7.06717 13.8494C7.20222 14.5284 7.53556 15.152 8.02505 15.6415C8.51453 16.131 9.13817 16.4643 9.8171 16.5994C10.496 16.7344 11.1998 16.6651 11.8393 16.4002C12.4789 16.1353 13.0255 15.6867 13.4101 15.1111C13.7946 14.5356 13.9999 13.8589 13.9999 13.1666M10.4999 9.66663H11.6666M13.9999 7.33329C12.7113 7.33329 11.6666 8.37796 11.6666 9.66663M13.9999 7.33329C15.2886 7.33329 16.3333 8.37796 16.3333 9.66663M13.9999 13.1666V12M11.6666 9.66663C11.6666 10.9553 12.7113 12 13.9999 12M16.3333 9.66663C16.3333 10.9553 15.2886 12 13.9999 12M13.9999 12V26M13.9999 26C18.8999 26 22.1666 24.0551 22.1666 20.1666C17.2666 20.1666 13.9999 22.1115 13.9999 26ZM13.9999 26C9.09992 26 5.83325 24.0551 5.83325 20.1666C10.7333 20.1666 13.9999 22.1115 13.9999 26Z" stroke="white" stroke-width="2" stroke-linecap="round" stroke-linejoin="round"/>
</svg>
