<svg width="29" height="29" viewBox="0 0 29 29" fill="none" xmlns="http://www.w3.org/2000/svg">
<path fill-rule="evenodd" clip-rule="evenodd" d="M12.9999 0.833313H7.4999C7.27372 0.833446 7.05426 0.910252 6.87736 1.05119C6.70046 1.19213 6.57656 1.38888 6.5259 1.60931L0.525899 27.6093C0.49223 27.7558 0.492017 27.908 0.525275 28.0546C0.558534 28.2012 0.624408 28.3384 0.718001 28.456C0.811593 28.5736 0.930495 28.6686 1.06586 28.7339C1.20123 28.7993 1.34959 28.8332 1.4999 28.8333H12.9999V24.5253C12.9999 24.1275 13.1579 23.746 13.4392 23.4647C13.7205 23.1833 14.1021 23.0253 14.4999 23.0253C14.8977 23.0253 15.2793 23.1833 15.5606 23.4647C15.8419 23.746 15.9999 24.1275 15.9999 24.5253V28.8333H27.4999C27.6502 28.8332 27.7986 28.7993 27.9339 28.7339C28.0693 28.6686 28.1882 28.5736 28.2818 28.456C28.3754 28.3384 28.4413 28.2012 28.4745 28.0546C28.5078 27.908 28.5076 27.7558 28.4739 27.6093L22.4739 1.60931C22.4232 1.38888 22.2993 1.19213 22.1224 1.05119C21.9455 0.910252 21.7261 0.833446 21.4999 0.833313L15.9999 0.833313V5.14131C15.9999 5.53914 15.8419 5.92067 15.5606 6.20197C15.2793 6.48328 14.8977 6.64131 14.4999 6.64131C14.1021 6.64131 13.7205 6.48328 13.4392 6.20197C13.1579 5.92067 12.9999 5.53914 12.9999 5.14131V0.833313ZM14.4999 11.1793C14.8977 11.1793 15.2793 11.3373 15.5606 11.6187C15.8419 11.9 15.9999 12.2815 15.9999 12.6793V16.9873C15.9999 17.3851 15.8419 17.7667 15.5606 18.048C15.2793 18.3293 14.8977 18.4873 14.4999 18.4873C14.1021 18.4873 13.7205 18.3293 13.4392 18.048C13.1579 17.7667 12.9999 17.3851 12.9999 16.9873V12.6793C12.9999 12.2815 13.1579 11.9 13.4392 11.6187C13.7205 11.3373 14.1021 11.1793 14.4999 11.1793Z" fill="white"/>
</svg>
