<svg width="143" height="143" viewBox="0 0 143 143" fill="none" xmlns="http://www.w3.org/2000/svg">
<path d="M29.959 57.6363C18.2085 52.9384 12.3333 50.5895 12.3333 47.6667C12.3333 44.7438 18.2085 42.4008 29.959 37.6971L46.573 31.0527C58.3235 26.3489 64.2047 24 71.4999 24C78.7952 24 84.6763 26.3489 96.4268 31.0527L113.041 37.6971C124.791 42.3949 130.667 44.7438 130.667 47.6667C130.667 50.5895 124.791 52.9325 113.041 57.6363L96.4268 64.2866C84.6763 68.9844 78.7952 71.3333 71.4999 71.3333C64.2047 71.3333 58.3235 68.9844 46.573 64.2866L29.959 57.6363Z" fill="white"/>
<path fill-rule="evenodd" clip-rule="evenodd" d="M12.3333 47.6667C12.3333 50.5895 18.2085 52.9325 29.959 57.6363L46.573 64.2866C58.3235 68.9844 64.2047 71.3333 71.4999 71.3333C78.7952 71.3333 84.6763 68.9844 96.4268 64.2866L113.041 57.6363C124.791 52.9384 130.667 50.5895 130.667 47.6667C130.667 44.7438 124.791 42.4008 113.041 37.6971L96.4268 31.0527C84.6763 26.3489 78.7952 24 71.4999 24C64.2047 24 58.3235 26.3489 46.573 31.0527L29.9649 37.6971C18.2085 42.3949 12.3333 44.7438 12.3333 47.6667Z" fill="white"/>
<path opacity="0.7" d="M34.6154 59.5L29.959 61.3637C18.2085 66.0616 12.3333 68.4164 12.3333 71.3333C12.3333 74.2502 18.2085 76.5992 29.959 81.3029L46.573 87.9532C58.3235 92.6511 64.2047 95 71.4999 95C78.7952 95 84.6763 92.6511 96.4268 87.9532L113.041 81.3029C124.791 76.6051 130.667 74.2502 130.667 71.3333C130.667 68.4164 124.791 66.0675 113.041 61.3637L108.384 59.5L96.4268 64.2866C84.6763 68.9844 78.7952 71.3333 71.4999 71.3333C64.2047 71.3333 58.3235 68.9844 46.573 64.2866L34.6154 59.5Z" fill="white"/>
<path opacity="0.4" d="M34.6154 83.1666L29.959 85.0304C18.2085 89.7282 12.3333 92.083 12.3333 95C12.3333 97.9169 18.2085 100.266 29.959 104.97L46.573 111.62C58.3235 116.318 64.2047 118.667 71.4999 118.667C78.7952 118.667 84.6763 116.318 96.4268 111.614L113.041 104.97C124.791 100.272 130.667 97.9228 130.667 95C130.667 92.083 124.791 89.7341 113.041 85.0304L108.384 83.1666L96.4268 87.9532C84.6763 92.651 78.7952 95 71.4999 95C64.2047 95 58.3235 92.651 46.573 87.9532L34.6154 83.1666Z" fill="white"/>
</svg>
