<svg width="29" height="29" viewBox="0 0 29 29" fill="none" xmlns="http://www.w3.org/2000/svg">
<g clip-path="url(#clip0_331_674)">
<path fill-rule="evenodd" clip-rule="evenodd" d="M14.6636 2.01331C14.5265 1.96285 14.3872 1.91886 14.246 1.88147C14.1048 1.84328 13.9619 1.81175 13.8178 1.78697C13.2333 1.68781 12.8028 2.12297 12.6231 2.68822C11.6023 5.9158 10.396 10.2844 9.45679 13.7745C9.63451 13.7581 9.81495 13.75 9.99812 13.75C10.8708 13.75 11.6548 13.9909 12.321 14.4074L12.7223 12.9666C13.602 9.8113 14.6065 6.21156 15.2446 3.39114C15.3759 2.81247 15.2195 2.21981 14.6636 2.01331Z" fill="white"/>
<path d="M3.77391 18.9732C4.55907 16.0332 6.95482 13.75 9.99807 13.75C12.8535 13.75 14.7604 16.3312 14.6974 19.1867L14.6642 20.6852C14.6516 21.2433 14.7537 21.7981 14.9639 22.3152C15.1742 22.8323 15.4883 23.3008 15.8868 23.6917L16.532 24.3253C17.4577 25.2335 16.917 26.7892 15.6255 26.8966C13.9531 27.0348 11.8863 27.1667 10.0832 27.1667C7.76041 27.1667 5.43757 26.9479 3.98682 26.7782C3.12932 26.6778 2.49524 25.9452 2.57691 25.0853C2.76357 23.1236 3.26232 20.8923 3.77391 18.9732Z" stroke="white" stroke-width="1.75" stroke-linecap="round" stroke-linejoin="round"/>
<path d="M12.4166 14.3438C13.3966 10.7096 14.4361 7.07077 15.2475 3.39286C15.3752 2.81361 15.2195 2.22036 14.6642 2.01327C14.5269 1.9628 14.3873 1.91881 14.2459 1.88144C14.1047 1.84325 13.9619 1.81172 13.8177 1.78694C13.2332 1.68777 12.8016 2.12411 12.6231 2.68936C11.4797 6.30077 10.5569 9.99386 9.58216 13.6514M26.9999 26.5833H21.1666M25.2499 21.9166H19.4166M23.4999 17.2499H17.6666M6.61182 22.3541C6.51441 23.2291 6.61182 25.3874 7.77849 27.0208M10.6952 22.4999C10.6952 22.4999 10.6952 25.4166 12.4166 26.8749" stroke="white" stroke-width="1.75" stroke-linecap="round" stroke-linejoin="round"/>
</g>
<defs>
<clipPath id="clip0_331_674">
<rect width="28" height="28" fill="white" transform="translate(0.75 0.333313)"/>
</clipPath>
</defs>
</svg>
