<svg width="29" height="29" viewBox="0 0 29 29" fill="none" xmlns="http://www.w3.org/2000/svg">
<path d="M11 3.83331C7.13833 3.83331 4.16333 6.97165 4 10.8333V24.8333H14.5V16.0366C15.7833 17.1916 17.4167 17.8333 19.1667 17.8333C23.0283 17.8333 26.1667 14.695 26.1667 10.8333C26.1667 6.97165 23.0283 3.83331 19.1667 3.83331H11ZM11 6.16665H13.9633C12.8083 7.44998 12.1667 9.08331 12.1667 10.8333V14.3333H11V15.5H12.1667V22.5H6.33333V15.5H7.5V14.3333H6.33333V10.8333C6.33333 8.25498 8.42167 6.16665 11 6.16665ZM19.1667 6.16665C21.745 6.16665 23.8333 8.25498 23.8333 10.8333C23.8333 13.4116 21.745 15.5 19.1667 15.5C16.5883 15.5 14.5 13.4116 14.5 10.8333C14.5 8.25498 16.5883 6.16665 19.1667 6.16665ZM19.1667 8.79165C18.035 8.79165 17.125 9.70165 17.125 10.8333C17.125 11.965 18.035 12.875 19.1667 12.875C20.2983 12.875 21.2083 11.965 21.2083 10.8333C21.2083 9.70165 20.2983 8.79165 19.1667 8.79165ZM8.66667 14.3333V15.5H9.83333V14.3333H8.66667Z" fill="white"/>
</svg>
