<svg width="94" height="88" viewBox="0 0 94 88" fill="none" xmlns="http://www.w3.org/2000/svg">
<path d="M62.2167 30.837H32.6383C30.6862 30.8351 28.8147 30.1494 27.4344 28.9306C26.0541 27.7117 25.2776 26.0591 25.2754 24.3354V24.1968C25.2779 22.4732 26.0545 20.8208 27.4347 19.6019C28.815 18.3831 30.6863 17.6974 32.6383 17.6952H62.2167C64.1687 17.6974 66.04 18.3831 67.4203 19.6019C68.8005 20.8208 69.5771 22.4732 69.5796 24.1968V24.3354C69.5774 26.0591 68.801 27.7117 67.4206 28.9306C66.0403 30.1494 64.1688 30.8351 62.2167 30.837ZM32.6383 21.0798C31.7024 21.0806 30.8051 21.4093 30.1433 21.9937C29.4815 22.5781 29.1093 23.3704 29.1084 24.1968V24.3354C29.1093 25.1618 29.4815 25.9542 30.1433 26.5385C30.8051 27.1229 31.7024 27.4516 32.6383 27.4524H62.2167C63.1526 27.4516 64.0499 27.1229 64.7117 26.5385C65.3735 25.9542 65.7457 25.1618 65.7467 24.3354V24.1968C65.7457 23.3704 65.3735 22.5781 64.7117 21.9937C64.0499 21.4093 63.1526 21.0806 62.2167 21.0798H32.6383Z" fill="white"/>
<path d="M47.6343 88H47.2199C38.2268 88 30.9106 81.5396 30.9106 73.5985V29.1447C30.9106 28.6959 31.1126 28.2654 31.472 27.9481C31.8314 27.6307 32.3188 27.4524 32.8271 27.4524H62.0271C62.5354 27.4524 63.0228 27.6307 63.3823 27.9481C63.7417 28.2654 63.9436 28.6959 63.9436 29.1447V73.5985C63.9436 81.5396 56.6274 88 47.6343 88ZM34.7436 30.837V73.5985C34.7474 76.5193 36.0631 79.3196 38.402 81.3849C40.741 83.4503 43.9121 84.612 47.2199 84.6154H47.6343C50.9421 84.612 54.1133 83.4503 56.4522 81.3849C58.7911 79.3196 60.1068 76.5193 60.1106 73.5985V30.837H34.7436Z" fill="white"/>
<path d="M56.9583 21.0798C56.45 21.0798 55.9625 20.9015 55.6031 20.5841C55.2437 20.2668 55.0418 19.8363 55.0418 19.3875V12.1634H39.8129V19.3875C39.8129 19.8363 39.611 20.2668 39.2516 20.5841C38.8922 20.9015 38.4047 21.0798 37.8965 21.0798C37.3882 21.0798 36.9007 20.9015 36.5413 20.5841C36.1819 20.2668 35.98 19.8363 35.98 19.3875V10.4711C35.98 10.0223 36.1819 9.59187 36.5413 9.2745C36.9007 8.95713 37.3882 8.77883 37.8965 8.77883H56.9583C57.4665 8.77883 57.954 8.95713 58.3134 9.2745C58.6728 9.59187 58.8747 10.0223 58.8747 10.4711V19.3875C58.8747 19.8363 58.6728 20.2668 58.3134 20.5841C57.954 20.9015 57.4665 21.0798 56.9583 21.0798Z" fill="white"/>
<path d="M62.0273 62.9158C61.519 62.9158 61.0316 62.7375 60.6722 62.4201C60.3128 62.1027 60.1108 61.6723 60.1108 61.2235V52.4446C60.1108 51.9958 60.3128 51.5654 60.6722 51.248C61.0316 50.9306 61.519 50.7523 62.0273 50.7523C62.5356 50.7523 63.0231 50.9306 63.3825 51.248C63.7419 51.5654 63.9438 51.9958 63.9438 52.4446V61.2235C63.9438 61.6723 63.7419 62.1027 63.3825 62.4201C63.0231 62.7375 62.5356 62.9158 62.0273 62.9158Z" fill="white"/>
<path d="M77.0545 12.1635H17.7993C17.291 12.1635 16.8035 11.9852 16.4441 11.6678C16.0847 11.3504 15.8828 10.92 15.8828 10.4711V1.69229C15.8828 1.24347 16.0847 0.81302 16.4441 0.495651C16.8035 0.178281 17.291 -1.52588e-05 17.7993 -1.52588e-05H77.0545C77.5627 -1.52588e-05 78.0502 0.178281 78.4096 0.495651C78.769 0.81302 78.9709 1.24347 78.9709 1.69229V10.4711C78.9709 10.92 78.769 11.3504 78.4096 11.6678C78.0502 11.9852 77.5627 12.1635 77.0545 12.1635ZM19.7158 8.77884H75.138V3.3846H19.7158V8.77884Z" fill="white"/>
<path d="M32.8286 46.8769C32.3203 46.8769 31.8328 46.6986 31.4734 46.3813C31.114 46.0639 30.9121 45.6334 30.9121 45.1846V36.4058C30.9121 35.9569 31.114 35.5265 31.4734 35.2091C31.8328 34.8918 32.3203 34.7135 32.8286 34.7135C33.3369 34.7135 33.8243 34.8918 34.1837 35.2091C34.5432 35.5265 34.7451 35.9569 34.7451 36.4058V45.1846C34.7451 45.6334 34.5432 46.0639 34.1837 46.3813C33.8243 46.6986 33.3369 46.8769 32.8286 46.8769Z" fill="white"/>
<path d="M32.8274 76.3337H2.77097C2.26269 76.3337 1.77523 76.1554 1.41582 75.838C1.05641 75.5206 0.854492 75.0902 0.854492 74.6414V65.8625C0.854492 65.4137 1.05641 64.9832 1.41582 64.6659C1.77523 64.3485 2.26269 64.1702 2.77097 64.1702H32.8274C33.3357 64.1702 33.8231 64.3485 34.1825 64.6659C34.5419 64.9832 34.7438 65.4137 34.7438 65.8625C34.7438 66.3113 34.5419 66.7418 34.1825 67.0591C33.8231 67.3765 33.3357 67.5548 32.8274 67.5548H4.68745V72.949H32.8274C33.3357 72.949 33.8231 73.1273 34.1825 73.4447C34.5419 73.7621 34.7438 74.1925 34.7438 74.6414C34.7438 75.0902 34.5419 75.5206 34.1825 75.838C33.8231 76.1554 33.3357 76.3337 32.8274 76.3337Z" fill="white"/>
<path d="M12.7152 85.213H2.77341C2.26513 85.213 1.77767 85.0347 1.41826 84.7173C1.05885 84.4 0.856934 83.9695 0.856934 83.5207V56.98C0.856934 56.5312 1.05885 56.1007 1.41826 55.7834C1.77767 55.466 2.26513 55.2877 2.77341 55.2877H12.7152C13.2234 55.2877 13.7109 55.466 14.0703 55.7834C14.4297 56.1007 14.6316 56.5312 14.6316 56.98V83.5207C14.6316 83.9695 14.4297 84.4 14.0703 84.7173C13.7109 85.0347 13.2234 85.213 12.7152 85.213ZM4.68989 81.8284H10.7987V58.6723H4.68989V81.8284Z" fill="white"/>
<path d="M92.0823 51.2865H62.0259C61.5176 51.2865 61.0301 51.1082 60.6707 50.7908C60.3113 50.4734 60.1094 50.043 60.1094 49.5941C60.1094 49.1453 60.3113 48.7149 60.6707 48.3975C61.0301 48.0801 61.5176 47.9018 62.0259 47.9018H90.1658V42.5076H62.0259C61.5176 42.5076 61.0301 42.3293 60.6707 42.0119C60.3113 41.6946 60.1094 41.2641 60.1094 40.8153C60.1094 40.3665 60.3113 39.936 60.6707 39.6187C61.0301 39.3013 61.5176 39.123 62.0259 39.123H92.0823C92.5905 39.123 93.078 39.3013 93.4374 39.6187C93.7968 39.936 93.9987 40.3665 93.9987 40.8153V49.5941C93.9987 50.043 93.7968 50.4734 93.4374 50.7908C93.078 51.1082 92.5905 51.2865 92.0823 51.2865Z" fill="white"/>
<path d="M92.0833 60.1658H82.1416C81.6333 60.1658 81.1458 59.9875 80.7864 59.6701C80.427 59.3527 80.2251 58.9223 80.2251 58.4735V31.9328C80.2251 31.484 80.427 31.0535 80.7864 30.7361C81.1458 30.4188 81.6333 30.2405 82.1416 30.2405H92.0833C92.5916 30.2405 93.0791 30.4188 93.4385 30.7361C93.7979 31.0535 93.9998 31.484 93.9998 31.9328V58.4735C93.9998 58.9223 93.7979 59.3527 93.4385 59.6701C93.0791 59.9875 92.5916 60.1658 92.0833 60.1658ZM84.0581 56.7812H90.1668V33.6251H84.0581V56.7812Z" fill="white"/>
<path d="M47.4273 68.9393C45.4799 68.9546 43.5888 68.3633 42.0863 67.2692C40.4357 66.0413 39.4978 64.3077 39.3733 62.2526C39.1732 58.9494 41.17 55.5669 43.1116 52.2965C44.0806 50.6582 44.9969 49.1118 45.627 47.612C45.7631 47.2881 46.0082 47.0088 46.3294 46.8116C46.6506 46.6143 47.0324 46.5086 47.4237 46.5086C47.8149 46.5086 48.1967 46.6143 48.5179 46.8116C48.8391 47.0088 49.0842 47.2881 49.2204 47.612C49.8564 49.1118 50.7775 50.6582 51.7357 52.2965C53.6726 55.5669 55.6741 58.9494 55.4741 62.2526C55.3543 64.3066 54.4116 66.0413 52.7611 67.2692C51.2605 68.3619 49.3722 68.9531 47.4273 68.9393ZM43.2002 62.0738C43.3559 64.643 45.5743 65.5547 47.4273 65.5547C49.2803 65.5547 51.4998 64.643 51.6543 62.0738C51.798 59.6962 50.0433 56.7325 48.346 53.8651C48.0393 53.3479 47.7303 52.8243 47.4273 52.2976C47.1242 52.8264 46.8152 53.3479 46.5085 53.8651C44.8113 56.7325 43.0565 59.6962 43.2002 62.0738Z" fill="white"/>
</svg>
