<svg width="60" height="80" viewBox="0 0 60 80" fill="none" xmlns="http://www.w3.org/2000/svg">
<g clip-path="url(#clip0_57_31)">
<path d="M55.5838 56.9519C55.2703 58.3643 53.7085 64.3658 47.8405 67.4775C43.0394 70.0263 38.2053 69.1226 36.0494 68.7167C33.7891 68.2892 31.7983 67.6073 29.9944 66.6982C27.5691 65.486 25.4573 63.8733 23.4115 61.9684C20.7112 59.4629 16.5151 55.5124 14.2877 53.5371C12.0604 51.5673 8.67272 48.6017 6.62139 47.5735C4.56456 46.5453 1.20984 45.8472 1.20984 45.8472C2.08427 44.0668 2.96419 42.2918 3.83862 40.5168C5.89545 36.2741 7.95778 33.0433 9.47565 30.8624C12.2089 26.9228 15.9211 22.8208 20.1668 16.8463C21.3382 15.1958 22.2676 13.8267 22.867 12.9391C23.6315 11.5917 24.3959 10.2442 25.1603 8.89125C25.7598 7.67364 26.1998 6.60214 26.5132 5.76875C26.8817 4.79466 27.1072 4.19397 27.3272 3.31187C27.3932 3.03047 27.5361 2.36484 27.8221 1.03899C27.9156 0.611474 27.9926 0.254307 28.0421 0.0161953H28.1411L28.2841 -0.0054512C28.3171 -3.95812e-05 28.3831 0.0107837 28.4326 0.0270185C28.4876 0.048665 28.5426 0.0703115 28.5536 0.102781C28.801 0.925348 29.043 1.74791 29.2905 2.57048C29.3455 2.77071 29.7085 4.12362 30.5499 6.81319C31.4573 9.71923 32.7002 11.9759 33.7286 13.8645C34.746 15.7153 36.0989 17.9016 37.8808 20.2448C39.7011 22.8154 41.527 25.3805 43.3473 27.951C44.4142 29.5095 45.4757 31.0627 46.5481 32.6158C48.0769 34.8454 49.6003 37.0696 51.1292 39.3046C51.7066 40.2516 52.4931 41.6478 53.2465 43.4174C54.7919 47.0432 56.7827 51.6755 55.6003 56.9519H55.5838Z" fill="#3F8DB4"/>
<path d="M34.3776 30.1752C33.5857 31.474 33.1072 32.3344 32.1503 34.0175C31.4904 35.181 31.4794 35.1972 31.4244 35.3433C31.2979 35.6896 30.5444 37.7082 31.7268 39.678C31.8643 39.9107 33.1897 42.0267 35.7525 42.1024C38.4253 42.1836 39.8992 39.9756 40.0147 39.7971C41.0486 38.1898 40.7076 36.5068 40.6361 36.155C40.5866 35.9061 40.5261 35.7059 39.6517 33.9579C39.0467 32.7403 38.9312 32.5563 37.6389 30.1752C36.6819 28.411 36.4675 28.0051 36.0825 27.9943C35.758 27.9835 35.5435 28.2703 34.3831 30.1752H34.3776Z" fill="white" stroke="white" stroke-miterlimit="10"/>
<path d="M17.9285 31.8636C18.8761 31.8636 19.6444 31.2095 19.6444 30.4025C19.6444 29.5955 18.8761 28.9414 17.9285 28.9414C16.9809 28.9414 16.2126 29.5955 16.2126 30.4025C16.2126 31.2095 16.9809 31.8636 17.9285 31.8636Z" fill="#6ABAD6"/>
<path d="M47.0464 41.3822C47.8422 40.9516 48.0767 39.8679 47.5703 38.9618C47.0638 38.0557 46.0082 37.6703 45.2124 38.1009C44.4167 38.5316 44.1822 39.6152 44.6886 40.5213C45.195 41.4274 46.2507 41.8129 47.0464 41.3822Z" fill="#6ABAD6"/>
<path d="M51.5032 68.0078C51.7012 68.1973 50.4253 69.7991 49.3034 71.0492C48 72.5049 46.4931 73.7171 44.3318 75.0213C42.132 76.3526 39.1292 78.1655 34.5921 79.2261C32.8487 79.632 28.1851 80.5574 22.4216 79.5562C19.4188 79.0313 17.186 78.1709 16.2236 77.7704C13.0559 76.4608 10.933 74.9131 10.2566 74.399C9.82764 74.0743 8.73323 73.2247 7.42984 71.9096C7.12187 71.5958 6.80839 71.2602 6.48392 70.8977C5.14203 69.3878 4.14661 67.9321 3.43167 66.7361C4.20161 66.0434 5.5325 65.026 7.42984 64.4145C7.8973 64.263 9.71765 63.7164 12.6819 64.0303C17.1805 64.5119 18.7644 66.3952 25.7598 68.2838C26.2878 68.4245 26.7167 68.5328 26.9697 68.5977C26.9092 68.5707 26.8487 68.5382 26.7882 68.5111C20.2328 65.2966 18.9074 64.2143 13.9963 62.1958C9.76715 60.4641 7.38585 59.8904 4.68557 59.9499C3.20069 59.9824 1.8808 60.1989 0.791894 60.4641C0.549914 59.5495 0.406926 58.8135 0.318934 58.321C-0.0110389 56.5082 -0.0110388 55.415 -3.9761e-05 54.0188C0.0109593 52.8715 0.0934525 52.693 0.164946 52.5739C1.13837 50.945 5.571 51.2264 8.85422 52.6767C10.0311 53.1962 11.01 53.9376 12.9679 55.4204C15.3052 57.19 16.6856 58.4726 18.0495 59.6685C21.1127 62.3527 23.461 64.4199 26.8102 66.4168C30.4509 68.5923 33.3767 69.5556 34.8396 69.9831C36.7479 70.5351 38.2603 70.7732 39.3547 70.9031C41.7965 71.1791 43.4738 71.0113 44.0018 70.9518C45.2447 70.8111 46.0366 70.5892 46.4106 70.481C46.6086 70.4214 47.4225 70.1671 48.4124 69.68C49.1109 69.3337 49.0999 69.2633 50.4418 68.5111C51.3657 67.9916 51.4647 67.9754 51.5032 68.0133V68.0078Z" fill="#193F5B"/>
<path d="M27.0522 11.8677C26.0073 14.7142 24.4014 17.3984 23.879 18.2588C22.4491 20.6345 20.9752 22.5556 20.0678 23.7354C18.9129 25.2398 17.8405 26.5007 17.329 27.1068C16.0641 28.595 15.4207 29.2715 13.7928 31.2196C12.6159 32.6321 12.198 33.1841 11.758 33.8497C11.0816 34.8725 10.5921 35.8033 10.2291 36.4906C9.83866 37.2374 9.62418 37.7028 9.45919 38.0816C9.31621 38.4117 9.31071 38.4658 8.94774 39.402C8.48578 40.6196 8.27129 41.15 7.85883 41.7561C7.57285 42.1782 7.37487 42.3568 7.11639 42.4704C6.58843 42.6923 6.06048 42.5191 5.91749 42.4704C5.791 42.4271 5.32904 42.2756 5.05956 41.8968C4.68009 41.3556 4.88358 40.6305 5.03206 40.1975C5.813 37.8705 7.90282 34.9699 8.29879 34.4233C10.1796 31.8366 10.8781 30.9978 11.3895 30.3971C12.033 29.6557 12.9459 28.6491 13.0229 28.5679C13.8368 27.6696 14.2218 27.28 14.7992 26.6576C15.8442 25.5266 16.5866 24.6553 17.34 23.7678C18.1485 22.8154 19.2264 21.5004 20.9697 19.2708C22.5151 17.2955 24.2915 14.9307 24.9404 13.9782C28.3666 8.96164 28.2401 2.63005 28.1191 0.0108232L28.2621 0C28.2951 0.00541162 28.3611 0.0162349 28.4106 0.0324697C28.7186 2.1863 28.8891 6.86735 27.0467 11.8677H27.0522Z" fill="#C2E2F3"/>
<path d="M32.0513 40.1457V40.138" stroke="#1D1D1B" stroke-miterlimit="10"/>
<path d="M38.8872 32.4882V32.4806" stroke="#1D1D1B" stroke-miterlimit="10"/>
<path d="M33.2337 39.0719C33.2007 39.0557 33.1732 39.0394 33.1732 39.0394C33.1732 39.0394 33.1512 39.0286 33.1292 39.0124C32.9862 38.9096 32.8817 38.7418 32.8817 38.7418C32.8597 38.7147 32.8103 38.6498 32.7553 38.5578C32.7553 38.5578 32.5903 38.2818 32.5243 37.9301C32.3318 36.8694 32.7223 35.7005 32.7223 35.7005C32.9367 35.0294 33.3547 34.0066 34.2071 32.8918C34.7791 32.0855 35.1751 31.3928 35.4335 30.8895C35.7085 30.3646 35.8405 30.0453 36.0605 30.0399C36.3685 30.0345 36.5719 30.6298 37.0339 31.6147C37.0779 31.7121 37.1989 31.9881 37.3584 32.2803C37.3584 32.2803 37.4244 32.394 37.5509 32.6213C37.6114 32.7349 37.6499 32.7944 37.6993 32.881C37.7653 32.9947 37.7708 32.9892 37.8313 33.0867C37.9138 33.2219 37.9963 33.3572 38.0623 33.5358C38.0623 33.5358 38.0953 33.6224 38.1228 33.7198C38.7278 36.0739 34.6416 39.6888 33.2337 39.0827V39.0719Z" fill="#195686"/>
<path d="M35.1311 38.5524C35.813 38.1249 36.2585 37.6757 36.5444 37.3835C36.7479 37.1778 36.8799 37.0209 36.9184 36.9776C37.0504 36.8207 37.2814 36.5501 37.5179 36.1659C37.9413 35.4732 38.0843 34.8941 38.1283 34.7047C38.1668 34.537 38.1833 34.4504 38.1833 34.3151C38.1998 33.6657 37.8368 33.1841 37.8643 33.1732C37.9028 33.1516 38.2163 33.6765 38.2163 33.6765C38.6893 34.472 38.9257 34.8671 39.0467 35.1864C39.3602 35.9981 39.4152 36.5014 39.3932 36.9289C39.3932 36.9289 39.3877 37.0101 39.3767 37.0967C39.3107 37.7082 39.0192 39.4561 37.4464 40.2408C36.1265 40.8902 34.7021 40.4789 34.2951 40.2408C33.8277 39.9648 33.4812 39.559 33.4812 39.559C33.4592 39.5373 33.4427 39.5102 33.4207 39.4886C33.2722 39.31 33.1567 39.1314 33.0632 38.9583C33.3547 39.034 33.8497 39.1152 34.3941 38.9474C34.6361 38.8717 34.8011 38.7689 35.1366 38.5578L35.1311 38.5524Z" fill="#6ABAD6"/>
<path d="M22.6966 53.7861C22.3116 54.6898 22.5096 55.5936 22.6251 56.1293C22.7241 56.5947 22.9166 57.4281 23.626 58.1858C24.6104 59.2464 25.9193 59.4358 26.3098 59.49C26.7223 59.5441 28.7241 59.8038 29.9945 58.4347C30.9734 57.374 30.8634 56.0319 30.8414 55.691C30.7149 54.1054 29.6315 53.1259 29.2686 52.7958C28.9001 52.4603 28.2621 51.8866 27.2667 51.6702C25.5124 51.2913 23.3675 52.2059 22.6966 53.7807V53.7861Z" fill="#6ABAD6"/>
<path d="M31.3034 67.3043C31.3034 67.3043 31.5784 67.3747 31.6114 67.3855C35.1586 68.4462 41.4941 65.9244 41.4941 65.9244C43.8589 64.9828 45.7672 64.2197 47.8461 62.4285C48.891 61.5301 50.7223 59.9283 51.8992 57.2063C52.9826 54.6953 52.9606 52.5198 52.9331 51.4699C52.8836 49.3269 52.3887 47.8496 51.5307 45.3602C50.5188 42.4325 47.7306 35.4948 47.4611 34.4341C47.4171 34.2718 47.3126 33.7685 47.3181 33.7631C47.3181 33.7631 47.3181 33.7631 47.3401 33.801C47.3401 33.801 47.3401 33.801 47.4226 33.92C47.4391 33.9417 47.4501 33.9579 47.4611 33.9742C47.4776 34.0012 47.4941 34.0229 47.4996 34.0283C47.5491 34.0986 47.6646 34.2664 47.6646 34.2664C47.7801 34.4341 48.627 35.668 49.0559 36.3012C49.8699 37.4863 50.2823 38.0816 50.3538 38.1844C50.4198 38.2764 50.6453 38.5794 50.9148 38.9961C51.0358 39.1801 51.1238 39.3263 51.1953 39.4399C51.3108 39.6239 51.5142 39.9648 51.7672 40.414C51.8607 40.5818 52.1577 41.1175 52.5207 41.8589C52.7296 42.2864 52.8726 42.6057 53.0101 42.8979C53.3676 43.6826 53.8736 44.8461 54.4345 46.3505C54.506 46.5454 54.5445 46.6428 54.594 46.7781C54.8745 47.5573 55.3474 48.8886 55.6499 50.5554C55.9414 52.1464 55.9524 53.364 55.9524 53.7158C55.9524 54.0242 55.9524 54.6195 55.8644 55.3447C55.8094 55.8209 55.7214 56.2971 55.6939 56.4378C55.6554 56.6543 55.6169 56.8329 55.5894 56.9627C55.5124 57.3199 55.4354 57.5851 55.3859 57.7745C55.2759 58.1641 55.1714 58.4834 55.1329 58.597C55.056 58.8189 54.836 59.4791 54.5995 60.0474C54.1925 61.0214 53.7196 61.7628 53.4281 62.2228C53.0046 62.883 52.2842 63.987 51.0468 65.1722C50.2549 65.9298 49.5564 66.4277 49.2374 66.6441C48.682 67.0229 48.1925 67.3043 47.8516 67.4829C47.7251 67.5479 47.3181 67.7643 46.7626 68.0024C46.5537 68.0944 46.2567 68.2189 45.8497 68.3596C45.7507 68.3921 45.4593 68.4949 45.0193 68.6139C44.0844 68.8737 43.3309 68.9928 43.0999 69.0252C42.8855 69.0577 42.3245 69.1389 41.5876 69.1768C41.4391 69.1876 40.9386 69.2092 40.2732 69.1984C39.3383 69.1822 38.6178 69.101 38.2109 69.0523C37.4629 68.9657 36.913 68.8683 36.4565 68.7817C34.5867 68.4408 33.3218 68.0295 33.3163 68.0295C32.3703 67.6994 31.2924 67.3152 31.3034 67.2935V67.3043Z" fill="#193F5B"/>
</g>
<defs>
<clipPath id="clip0_57_31">
<rect width="60" height="80" fill="white"/>
</clipPath>
</defs>
</svg>
