<svg width="42" height="42" viewBox="0 0 42 42" fill="none" xmlns="http://www.w3.org/2000/svg">
<path d="M15.1067 10.1067L13.2 8.2C10 10.64 7.89333 14.4 7.70667 18.6667H10.3733C10.4683 16.9759 10.9431 15.3282 11.7626 13.8462C12.5821 12.3642 13.7251 11.086 15.1067 10.1067ZM31.6267 18.6667H34.2933C34.0933 14.4 31.9867 10.64 28.8 8.2L26.9067 10.1067C28.2823 11.0908 29.4202 12.3704 30.237 13.8516C31.0537 15.3328 31.5285 16.9781 31.6267 18.6667ZM29 19.3333C29 15.24 26.8133 11.8133 23 10.9067V10C23 8.89333 22.1067 8 21 8C19.8933 8 19 8.89333 19 10V10.9067C15.1733 11.8133 13 15.2267 13 19.3333V26L10.3333 28.6667V30H31.6667V28.6667L29 26V19.3333ZM21 34C21.1867 34 21.36 33.9867 21.5333 33.9467C22.4 33.76 23.1067 33.1733 23.4533 32.3733C23.5867 32.0533 23.6533 31.7067 23.6533 31.3333H18.32C18.3333 32.8 19.52 34 21 34Z" fill="white"/>
</svg>
