<svg width="42" height="42" viewBox="0 0 42 42" fill="none" xmlns="http://www.w3.org/2000/svg">
<path d="M17 9C17.7072 9 18.3855 9.28095 18.8856 9.78105C19.3857 10.2811 19.6667 10.9594 19.6667 11.6667V19.6667C19.6667 20.3739 19.3857 21.0522 18.8856 21.5523C18.3855 22.0524 17.7072 22.3333 17 22.3333H11.6667C10.9594 22.3333 10.2811 22.0524 9.78105 21.5523C9.28095 21.0522 9 20.3739 9 19.6667V11.6667C9 10.9594 9.28095 10.2811 9.78105 9.78105C10.2811 9.28095 10.9594 9 11.6667 9H17ZM17 25C17.7072 25 18.3855 25.281 18.8856 25.781C19.3857 26.2811 19.6667 26.9594 19.6667 27.6667V30.3333C19.6667 31.0406 19.3857 31.7189 18.8856 32.219C18.3855 32.719 17.7072 33 17 33H11.6667C10.9594 33 10.2811 32.719 9.78105 32.219C9.28095 31.7189 9 31.0406 9 30.3333V27.6667C9 26.9594 9.28095 26.2811 9.78105 25.781C10.2811 25.281 10.9594 25 11.6667 25H17ZM30.3333 19.6667C31.0406 19.6667 31.7189 19.9476 32.219 20.4477C32.719 20.9478 33 21.6261 33 22.3333V30.3333C33 31.0406 32.719 31.7189 32.219 32.219C31.7189 32.719 31.0406 33 30.3333 33H25C24.2928 33 23.6145 32.719 23.1144 32.219C22.6143 31.7189 22.3333 31.0406 22.3333 30.3333V22.3333C22.3333 21.6261 22.6143 20.9478 23.1144 20.4477C23.6145 19.9476 24.2928 19.6667 25 19.6667H30.3333ZM30.3333 9C31.0406 9 31.7189 9.28095 32.219 9.78105C32.719 10.2811 33 10.9594 33 11.6667V14.3333C33 15.0406 32.719 15.7189 32.219 16.219C31.7189 16.719 31.0406 17 30.3333 17H25C24.2928 17 23.6145 16.719 23.1144 16.219C22.6143 15.7189 22.3333 15.0406 22.3333 14.3333V11.6667C22.3333 10.9594 22.6143 10.2811 23.1144 9.78105C23.6145 9.28095 24.2928 9 25 9H30.3333Z" fill="white"/>
</svg>
