<svg width="42" height="42" viewBox="0 0 42 42" fill="none" xmlns="http://www.w3.org/2000/svg">
<path d="M15.6667 33C14.9333 33 14.3058 32.7391 13.784 32.2173C13.2622 31.6956 13.0009 31.0676 13 30.3333V11.6667C13 10.9333 13.2613 10.3058 13.784 9.784C14.3067 9.26222 14.9342 9.00089 15.6667 9H26.3333C27.0667 9 27.6947 9.26133 28.2173 9.784C28.74 10.3067 29.0009 10.9342 29 11.6667V30.3333C29 31.0667 28.7391 31.6947 28.2173 32.2173C27.6955 32.74 27.0675 33.0009 26.3333 33H15.6667ZM21 15.6667C21.3778 15.6667 21.6947 15.5387 21.9507 15.2827C22.2067 15.0267 22.3342 14.7102 22.3333 14.3333C22.3324 13.9564 22.2044 13.64 21.9493 13.384C21.6942 13.128 21.3778 13 21 13C20.6222 13 20.3058 13.128 20.0507 13.384C19.7955 13.64 19.6675 13.9564 19.6667 14.3333C19.6658 14.7102 19.7938 15.0271 20.0507 15.284C20.3075 15.5409 20.624 15.6684 21 15.6667ZM9 22.3333V15.6667C9 15.2889 9.128 14.9724 9.384 14.7173C9.64 14.4622 9.95644 14.3342 10.3333 14.3333C10.7102 14.3324 11.0271 14.4604 11.284 14.7173C11.5409 14.9742 11.6684 15.2907 11.6667 15.6667V22.3333C11.6667 22.7111 11.5387 23.028 11.2827 23.284C11.0267 23.54 10.7102 23.6676 10.3333 23.6667C9.95644 23.6658 9.64 23.5378 9.384 23.2827C9.128 23.0276 9 22.7111 9 22.3333ZM30.3333 26.3333V19.6667C30.3333 19.2889 30.4613 18.9724 30.7173 18.7173C30.9733 18.4622 31.2898 18.3342 31.6666 18.3333C32.0435 18.3324 32.3604 18.4604 32.6173 18.7173C32.8742 18.9742 33.0018 19.2907 33 19.6667V26.3333C33 26.7111 32.872 27.028 32.616 27.284C32.36 27.54 32.0435 27.6676 31.6666 27.6667C31.2898 27.6658 30.9733 27.5378 30.7173 27.2827C30.4613 27.0276 30.3333 26.7111 30.3333 26.3333Z" fill="white"/>
</svg>
