<svg width="42" height="42" viewBox="0 0 42 42" fill="none" xmlns="http://www.w3.org/2000/svg">
<path d="M24.5294 10.4413C24.5652 10.589 24.6353 10.7261 24.734 10.8415C24.8328 10.957 24.9574 11.0475 25.0977 11.1057C25.238 11.1639 25.3901 11.1881 25.5416 11.1765C25.693 11.1649 25.8396 11.1176 25.9694 11.0387C29.2214 9.05865 32.9427 12.7787 30.9627 16.0307C30.8837 16.1603 30.8365 16.3068 30.8247 16.4582C30.813 16.6096 30.8372 16.7616 30.8952 16.9019C30.9533 17.0422 31.0437 17.1668 31.1589 17.2657C31.2742 17.3645 31.4112 17.4347 31.5587 17.4707C35.2587 18.368 35.2587 23.6307 31.5587 24.5293C31.4111 24.5651 31.274 24.6352 31.1585 24.734C31.0431 24.8327 30.9526 24.9573 30.8944 25.0976C30.8362 25.238 30.8119 25.39 30.8235 25.5415C30.8352 25.693 30.8824 25.8395 30.9614 25.9693C32.9414 29.2213 29.2214 32.9427 25.9694 30.9627C25.8397 30.8837 25.6932 30.8364 25.5418 30.8247C25.3904 30.813 25.2384 30.8371 25.0981 30.8952C24.9578 30.9532 24.8332 31.0436 24.7344 31.1589C24.6356 31.2742 24.5653 31.4111 24.5294 31.5587C23.632 35.2587 18.3694 35.2587 17.4707 31.5587C17.4349 31.411 17.3648 31.2739 17.2661 31.1585C17.1673 31.043 17.0427 30.9525 16.9024 30.8943C16.7621 30.8361 16.61 30.8118 16.4585 30.8235C16.3071 30.8351 16.1605 30.8824 16.0307 30.9613C12.7787 32.9413 9.05738 29.2213 11.0374 25.9693C11.1164 25.8396 11.1636 25.6931 11.1754 25.5418C11.1871 25.3904 11.1629 25.2384 11.1049 25.0981C11.0468 24.9578 10.9564 24.8331 10.8412 24.7343C10.7259 24.6355 10.5889 24.5653 10.4414 24.5293C6.74138 23.632 6.74138 18.3693 10.4414 17.4707C10.589 17.4349 10.7261 17.3648 10.8416 17.266C10.957 17.1673 11.0475 17.0427 11.1057 16.9023C11.1639 16.762 11.1882 16.6099 11.1766 16.4585C11.1649 16.307 11.1177 16.1604 11.0387 16.0307C9.05872 12.7787 12.7787 9.05732 16.0307 11.0373C16.1603 11.1169 16.3068 11.1646 16.4584 11.1767C16.61 11.1887 16.7622 11.1647 16.9027 11.1065C17.0432 11.0484 17.1679 10.9578 17.2666 10.8422C17.3653 10.7265 17.4353 10.5892 17.4707 10.4413C18.368 6.74132 23.6307 6.74132 24.5294 10.4413ZM21 17C19.9392 17 18.9218 17.4214 18.1716 18.1716C17.4215 18.9217 17 19.9391 17 21C17 22.0609 17.4215 23.0783 18.1716 23.8284C18.9218 24.5786 19.9392 25 21 25C22.0609 25 23.0783 24.5786 23.8285 23.8284C24.5786 23.0783 25 22.0609 25 21C25 19.9391 24.5786 18.9217 23.8285 18.1716C23.0783 17.4214 22.0609 17 21 17Z" fill="white"/>
</svg>
