<svg width="42" height="42" viewBox="0 0 42 42" fill="none" xmlns="http://www.w3.org/2000/svg">
<path fill-rule="evenodd" clip-rule="evenodd" d="M18.6725 8.26873C19.2324 8.10077 19.8238 8.06603 20.3995 8.16727C20.9752 8.26851 21.5193 8.50294 21.9883 8.85183C22.4573 9.20073 22.8382 9.65443 23.1007 10.1767C23.3632 10.699 23.4999 11.2754 23.5 11.86V30.14C23.4999 30.7245 23.3632 31.3009 23.1007 31.8232C22.8382 32.3455 22.4573 32.7992 21.9883 33.1481C21.5193 33.497 20.9752 33.7315 20.3995 33.8327C19.8238 33.9339 19.2324 33.8992 18.6725 33.7312L11.1725 31.4812C10.4001 31.2495 9.72301 30.775 9.2416 30.1281C8.76019 29.4812 8.50013 28.6964 8.5 27.89V14.11C8.50013 13.3036 8.76019 12.5187 9.2416 11.8718C9.72301 11.2249 10.4001 10.7504 11.1725 10.5187L18.6725 8.26873ZM24.75 11C24.75 10.6685 24.8817 10.3505 25.1161 10.1161C25.3505 9.88168 25.6685 9.74998 26 9.74998H29.75C30.7446 9.74998 31.6984 10.1451 32.4017 10.8483C33.1049 11.5516 33.5 12.5054 33.5 13.5V14.75C33.5 15.0815 33.3683 15.3994 33.1339 15.6339C32.8995 15.8683 32.5815 16 32.25 16C31.9185 16 31.6005 15.8683 31.3661 15.6339C31.1317 15.3994 31 15.0815 31 14.75V13.5C31 13.1685 30.8683 12.8505 30.6339 12.6161C30.3995 12.3817 30.0815 12.25 29.75 12.25H26C25.6685 12.25 25.3505 12.1183 25.1161 11.8839C24.8817 11.6494 24.75 11.3315 24.75 11ZM32.25 26C32.5815 26 32.8995 26.1317 33.1339 26.3661C33.3683 26.6005 33.5 26.9185 33.5 27.25V28.5C33.5 29.4945 33.1049 30.4484 32.4017 31.1516C31.6984 31.8549 30.7446 32.25 29.75 32.25H26C25.6685 32.25 25.3505 32.1183 25.1161 31.8839C24.8817 31.6494 24.75 31.3315 24.75 31C24.75 30.6685 24.8817 30.3505 25.1161 30.1161C25.3505 29.8817 25.6685 29.75 26 29.75H29.75C30.0815 29.75 30.3995 29.6183 30.6339 29.3839C30.8683 29.1494 31 28.8315 31 28.5V27.25C31 26.9185 31.1317 26.6005 31.3661 26.3661C31.6005 26.1317 31.9185 26 32.25 26ZM17.25 19.75C16.9185 19.75 16.6005 19.8817 16.3661 20.1161C16.1317 20.3505 16 20.6685 16 21C16 21.3315 16.1317 21.6494 16.3661 21.8839C16.6005 22.1183 16.9185 22.25 17.25 22.25H17.2513C17.5828 22.25 17.9007 22.1183 18.1351 21.8839C18.3696 21.6494 18.5013 21.3315 18.5013 21C18.5013 20.6685 18.3696 20.3505 18.1351 20.1161C17.9007 19.8817 17.5828 19.75 17.2513 19.75H17.25Z" fill="white"/>
<path d="M32.25 21H26M26 21L28.5 18.5M26 21L28.5 23.5" stroke="white" stroke-width="2" stroke-linecap="round" stroke-linejoin="round"/>
</svg>
