<svg xmlns="http://www.w3.org/2000/svg" xmlns:xlink="http://www.w3.org/1999/xlink" viewBox="0 0 400 400" width="400" height="400" preserveAspectRatio="xMidYMid meet" style="width: 100%; height: 100%; transform: translate3d(0px, 0px, 0px); content-visibility: visible;" id="Male Avatar"><defs><clipPath id="__lottie_element_7438"><rect width="400" height="400" x="0" y="0"/></clipPath><clipPath id="__lottie_element_7443"><path fill="#ffffff" clip-rule="nonzero" d=" M20.104999542236328,200.8419952392578 C20.104999542236328,298.2250061035156 99.04900360107422,377.1679992675781 196.4320068359375,377.1679992675781 C293.8160095214844,377.1679992675781 372.760009765625,298.2250061035156 372.760009765625,200.8419952392578 C372.760009765625,103.45700073242188 293.8160095214844,24.51099967956543 196.4320068359375,24.51099967956543 C99.04900360107422,24.51099967956543 20.104999542236328,103.45700073242188 20.104999542236328,200.8419952392578" fill-opacity="1"/></clipPath></defs><g clip-path="url(#__lottie_element_7438)"><g transform="matrix(1.2104899883270264,0,0,1.2104899883270264,200,200)" opacity="1" style="display: block;"><g opacity="1" transform="matrix(1,0,0,1,0,0)"><path fill="rgb(255,255,255)" fill-opacity="1" d=" M165.2220001220703,0 C165.2220001220703,91.2490005493164 91.2490005493164,165.2220001220703 -0.0010000000474974513,165.2220001220703 C-91.25,165.2220001220703 -165.2220001220703,91.2490005493164 -165.2220001220703,0 C-165.2220001220703,-91.2490005493164 -91.25,-165.2220001220703 -0.0010000000474974513,-165.2220001220703 C91.2490005493164,-165.2220001220703 165.2220001220703,-91.2490005493164 165.2220001220703,0z"/></g></g><g clip-path="url(#__lottie_element_7443)" transform="matrix(1.0199999809265137,0,0,1.0199999809265137,-1.9286346435546875,-11.960784912109375)" opacity="1" style="display: block;"><g opacity="1" transform="matrix(1,0,0,1,0,-9.8031005859375)"><g opacity="1" transform="matrix(1,0,0,1,0,0)"><g opacity="1" transform="matrix(1,0,0,1,240.01499938964844,343.6520080566406)"><path fill="rgb(150,217,201)" fill-opacity="1" d=" M0.0010000000474974513,66.6969985961914 C0.0010000000474974513,66.6969985961914 -39.72700119018555,13.623000144958496 -54.23500061035156,-11.491000175476074 C-68.74299621582031,-36.604000091552734 -44.35599899291992,-20.253999710083008 -19.445999145507812,-26.86400032043457 C-10.013999938964844,-29.364999771118164 -17.832000732421875,-80.87100219726562 0.0010000000474974513,-62.900001525878906 C29.2549991607666,-33.422000885009766 58.584999084472656,30.43899917602539 58.584999084472656,30.43899917602539 C58.584999084472656,30.43899917602539 0.0010000000474974513,66.6969985961914 0.0010000000474974513,66.6969985961914z"/></g><g opacity="1" transform="matrix(1,0,0,1,157.70199584960938,416.8080139160156)"><path fill="rgb(80,191,165)" fill-opacity="1" d=" M78.02200317382812,-139.5780029296875 C52.32600021362305,-147.36700439453125 4.186999797821045,-151.44200134277344 4.186999797821045,-151.44200134277344 C4.186999797821045,-151.44200134277344 -25.989999771118164,-156.3489990234375 -35.79499816894531,-154.22500610351562 C-50.22700119018555,-151.10000610351562 -77.322998046875,-149.67100524902344 -79.84500122070312,-87.0260009765625 C-81.64800262451172,-42.19900131225586 -86.75299835205078,68.70999908447266 -91.87000274658203,143.60499572753906 C-91.87000274658203,143.60499572753906 91.87000274658203,154.75799560546875 91.87000274658203,154.75799560546875 C83.55699920654297,39.527000427246094 102.35099792480469,-132.20399475097656 78.02200317382812,-139.5780029296875z"/></g><g opacity="1" transform="matrix(1,0,0,1,192.5570068359375,258.2699890136719)"><path fill="rgb(247,164,145)" fill-opacity="1" d=" M-5.548999786376953,-46.433998107910156 C-5.548999786376953,-46.433998107910156 -34.40599822998047,6.632999897003174 -34.40599822998047,6.632999897003174 C-34.40599822998047,6.632999897003174 -12.668000221252441,45.37799835205078 7.894999980926514,46.41299819946289 C25.148000717163086,47.28300094604492 22.437000274658203,21.77400016784668 22.437000274658203,21.77400016784668 C22.437000274658203,21.77400016784668 25.150999069213867,-11.206000328063965 33.43199920654297,-25.976999282836914 C41.7140007019043,-40.75 -5.548999786376953,-46.433998107910156 -5.548999786376953,-46.433998107910156z"/></g><g opacity="1" transform="matrix(1,0,0,1,204.21299743652344,233.36500549316406)"><path fill="rgb(244,116,88)" fill-opacity="1" d=" M-14.571999549865723,-0.27799999713897705 C-8.095000267028809,6.631999969482422 2.7260000705718994,15.737000465393066 14.456999778747559,21.530000686645508 C16.163000106811523,13.25 18.538999557495117,4.697999954223633 21.775999069213867,-1.0729999542236328 C25.597000122070312,-7.892000198364258 17.586999893188477,-12.770999908447266 7.853000164031982,-16.049999237060547 C-5.185999870300293,-19.516000747680664 -17.204999923706055,-21.530000686645508 -17.204999923706055,-21.530000686645508 C-17.204999923706055,-21.530000686645508 -22.75,-11.331999778747559 -22.75,-11.331999778747559 C-21.340999603271484,-7.752999782562256 -16.72800064086914,-2.5789999961853027 -14.571999549865723,-0.27799999713897705z"/></g><g opacity="1" transform="matrix(1,0,0,1,0,0)"><g opacity="1" transform="matrix(1,0,0,1,226.60899353027344,178.2779998779297)"><path fill="rgb(247,164,145)" fill-opacity="1" d=" M-24.77400016784668,-55.84000015258789 C-25.96299934387207,-56.6879997253418 -54.42900085449219,9.654000282287598 -42.08000183105469,33.52000045776367 C-29.733999252319336,57.387001037597656 2.877000093460083,73.14900207519531 19.350000381469727,61.63800048828125 C37.56999969482422,48.9109992980957 57.49599838256836,-25.361000061035156 35.52299880981445,-52.492000579833984 C13.550999641418457,-79.62699890136719 -24.77400016784668,-55.84000015258789 -24.77400016784668,-55.84000015258789z"/></g><g opacity="1" transform="matrix(1,0,0,1,216.8350067138672,158.37899780273438)"><path fill="rgb(24,70,85)" fill-opacity="1" d=" M45.125,-72.36699676513672 C22.7450008392334,-73.94000244140625 5.425000190734863,-64.81500244140625 -1.149999976158142,-60.70100021362305 C-11.081000328063965,-62.2400016784668 -25.631999969482422,-60.5629997253418 -45.34700012207031,-41.96900177001953 C-69.58899688720703,-19.110000610351562 -65.8030014038086,14.744000434875488 -50.63999938964844,35.05699920654297 C-35.47600173950195,55.36899948120117 -40.54499816894531,72.5479965209961 -40.54499816894531,72.5479965209961 C-40.54499816894531,72.5479965209961 -35.00899887084961,64.47200012207031 -35.00899887084961,64.47200012207031 C-30.87299919128418,58.34000015258789 -27.95800018310547,51.42499923706055 -26.73900032043457,44.125 C-26.007999420166016,39.74300003051758 -25.638999938964844,34.89099884033203 -26.349000930786133,30.618000030517578 C-28.2189998626709,19.349000930786133 -11.74899959564209,16.792999267578125 -5.336999893188477,9.635000228881836 C-0.4009999930858612,4.122000217437744 3.819999933242798,-10.45300006866455 11.734999656677246,-19.631999969482422 C11.734999656677246,-19.631999969482422 19.92099952697754,-26.042999267578125 19.92099952697754,-26.042999267578125 C19.92099952697754,-26.042999267578125 36.5989990234375,-32.89799880981445 49.17399978637695,-26.15399932861328 C61.74800109863281,-19.413000106811523 73.83999633789062,-70.34600067138672 45.125,-72.36699676513672z"/></g><g opacity="1" transform="matrix(1,0,0,1,198.3509979248047,177.73199462890625)"><path fill="rgb(247,164,145)" fill-opacity="1" d=" M8.833000183105469,2.2980000972747803 C6.632999897003174,10.744999885559082 0.8949999809265137,16.562999725341797 -3.9839999675750732,15.29800033569336 C-8.862000465393066,14.027999877929688 -11.032999992370605,6.1519999504089355 -8.833000183105469,-2.2960000038146973 C-6.633999824523926,-10.744000434875488 -0.8949999809265137,-16.565000534057617 3.9830000400543213,-15.29699993133545 C8.862000465393066,-14.027999877929688 11.032999992370605,-6.1529998779296875 8.833000183105469,2.2980000972747803z"/></g></g><g opacity="1" transform="matrix(1,0,0,1,243.7949981689453,214.4980010986328)"><path fill="rgb(255,255,255)" fill-opacity="1" d=" M-13.397000312805176,-7.074999809265137 C-13.397000312805176,-7.074999809265137 13.548999786376953,-1.059000015258789 13.548999786376953,-1.059000015258789 C13.548999786376953,-1.059000015258789 10.644000053405762,9.036999702453613 -1.2829999923706055,6.734000205993652 C-15.826000213623047,3.9230000972747803 -13.397000312805176,-7.074999809265137 -13.397000312805176,-7.074999809265137z"/></g><g opacity="1" transform="matrix(1,0,0,1,138.28900146484375,343.5350036621094)"><path fill="rgb(150,217,201)" fill-opacity="1" d=" M4.620999813079834,76.11199951171875 C4.620999813079834,76.11199951171875 -43.62900161743164,14.79800033569336 -55.40999984741211,-9.279999732971191 C-67.19200134277344,-33.35499954223633 -54.599998474121094,-71.46600341796875 -31.21299934387207,-75.97699737548828 C-7.827000141143799,-80.48699951171875 59.895999908447266,29.5 59.895999908447266,29.5 C59.895999908447266,29.5 4.620999813079834,76.11199951171875 4.620999813079834,76.11199951171875z"/></g></g></g></g></g></svg>